Model Small Std Three_CONVERTED.ufo
<glyph name="exclam" format="2">
  <advance width="575"/>
  <unicode hex="0021"/>
  <outline>
    <contour>
      <point x="70" y="107" type="line"/>
      <point x="389" y="889" type="line"/>
      <point x="363" y="889" type="line"/>
      <point x="63" y="110" type="line"/>
    </contour>
    <contour>
      <point x="4" y="16" type="curve"/>
      <point x="1" y="4"/>
      <point x="6" y="-10"/>
      <point x="22" y="-10" type="curve" smooth="yes"/>
      <point x="36" y="-10"/>
      <point x="51" y="-1"/>
      <point x="55" y="14" type="curve"/>
      <point x="61" y="30"/>
      <point x="51" y="41"/>
      <point x="38" y="41" type="curve" smooth="yes"/>
      <point x="23" y="41"/>
      <point x="9" y="30"/>
    </contour>
  </outline>
</glyph>
<glyph name="quotedbl" format="2">
  <advance width="252"/>
  <unicode hex="0022"/>
  <outline>
    <contour>
      <point x="150" y="684" type="line"/>
      <point x="154" y="682" type="line"/>
      <point x="223" y="785" type="line" smooth="yes"/>
      <point x="243" y="815"/>
      <point x="203" y="824"/>
      <point x="190" y="790" type="curve" smooth="yes"/>
    </contour>
    <contour>
      <point x="207" y="684" type="line"/>
      <point x="211" y="682" type="line"/>
      <point x="280" y="785" type="line" smooth="yes"/>
      <point x="300" y="815"/>
      <point x="260" y="824"/>
      <point x="247" y="790" type="curve" smooth="yes"/>
    </contour>
  </outline>
</glyph>
<glyph name="numbersign" format="2">
  <advance width="833"/>
  <unicode hex="0023"/>
  <outline>
    <contour>
      <point x="146" y="444" type="line"/>
      <point x="315" y="444" type="line"/>
      <point x="232" y="229" type="line"/>
      <point x="67" y="229" type="line"/>
      <point x="67" y="221" type="line"/>
      <point x="229" y="221" type="line"/>
      <point x="182" y="98" type="line"/>
      <point x="192" y="98" type="line"/>
      <point x="206" y="137"/>
      <point x="224" y="181"/>
      <point x="239" y="221" type="curve"/>
      <point x="444" y="221" type="line"/>
      <point x="397" y="98" type="line"/>
      <point x="407" y="98" type="line"/>
      <point x="421" y="137"/>
      <point x="439" y="181"/>
      <point x="454" y="221" type="curve"/>
      <point x="612" y="221" type="line"/>
      <point x="612" y="229" type="line"/>
      <point x="457" y="229" type="line"/>
      <point x="540" y="444" type="line"/>
      <point x="691" y="444" type="line"/>
      <point x="691" y="452" type="line"/>
      <point x="543" y="452" type="line"/>
      <point x="590" y="574" type="line"/>
      <point x="580" y="574" type="line"/>
      <point x="532" y="452" type="line"/>
      <point x="328" y="452" type="line"/>
      <point x="375" y="574" type="line"/>
      <point x="365" y="574" type="line"/>
      <point x="351" y="535"/>
      <point x="333" y="491"/>
      <point x="318" y="452" type="curve"/>
      <point x="146" y="452" type="line"/>
    </contour>
    <contour>
      <point x="325" y="444" type="line"/>
      <point x="530" y="444" type="line"/>
      <point x="447" y="229" type="line"/>
      <point x="242" y="229" type="line"/>
    </contour>
    <contour>
      <point x="449" y="229" type="line"/>
      <point x="447" y="229" type="line"/>
      <point x="447" y="228" type="line"/>
    </contour>
  </outline>
</glyph>
<glyph name="dollar" format="2">
  <advance width="625"/>
  <unicode hex="0024"/>
  <outline>
    <contour>
      <point x="553" y="671" type="curve" smooth="yes"/>
      <point x="476" y="671"/>
      <point x="388" y="621"/>
      <point x="388" y="513" type="curve" smooth="yes"/>
      <point x="388" y="466"/>
      <point x="406" y="425"/>
      <point x="429" y="385" type="curve"/>
      <point x="404" y="334"/>
      <point x="381" y="293"/>
      <point x="356" y="242" type="curve"/>
      <point x="357" y="249"/>
      <point x="358" y="255"/>
      <point x="358" y="263" type="curve" smooth="yes"/>
      <point x="358" y="319"/>
      <point x="311" y="365"/>
      <point x="241" y="365" type="curve" smooth="yes"/>
      <point x="143" y="365"/>
      <point x="41" y="277"/>
      <point x="41" y="157" type="curve" smooth="yes"/>
      <point x="41" y="57"/>
      <point x="112" y="-23"/>
      <point x="214" y="-38" type="curve"/>
      <point x="171" y="-123" type="line"/>
      <point x="180" y="-125" type="line"/>
      <point x="193" y="-97"/>
      <point x="210" y="-66"/>
      <point x="224" y="-38" type="curve"/>
      <point x="233" y="-39"/>
      <point x="240" y="-40"/>
      <point x="249" y="-40" type="curve" smooth="yes"/>
      <point x="388" y="-40"/>
      <point x="514" y="80"/>
      <point x="514" y="216" type="curve" smooth="yes"/>
      <point x="514" y="279"/>
      <point x="487" y="327"/>
      <point x="459" y="374" type="curve" smooth="yes"/>
      <point x="446" y="396" type="line"/>
      <point x="579" y="659" type="line"/>
      <point x="626" y="647"/>
      <point x="649" y="610"/>
      <point x="649" y="572" type="curve" smooth="yes"/>
      <point x="649" y="537"/>
      <point x="624" y="487"/>
      <point x="575" y="487" type="curve" smooth="yes"/>
      <point x="567" y="487"/>
      <point x="559" y="489"/>
      <point x="549" y="495" type="curve"/>
      <point x="548" y="485" type="line"/>
      <point x="558" y="481"/>
      <point x="568" y="479"/>
      <point x="579" y="479" type="curve" smooth="yes"/>
      <point x="628" y="479"/>
      <point x="665" y="532"/>
      <point x="665" y="570" type="curve" smooth="yes"/>
      <point x="665" y="613"/>
      <point x="637" y="656"/>
      <point x="583" y="667" type="curve"/>
      <point x="639" y="775" type="line"/>
      <point x="629" y="777" type="line"/>
      <point x="574" y="669" type="line"/>
      <point x="567" y="670"/>
      <point x="561" y="671"/>
    </contour>
    <contour>
      <point x="56" y="160" type="curve" smooth="yes"/>
      <point x="56" y="271"/>
      <point x="152" y="357"/>
      <point x="242" y="357" type="curve" smooth="yes"/>
      <point x="309" y="357"/>
      <point x="347" y="311"/>
      <point x="347" y="262" type="curve" smooth="yes"/>
      <point x="347" y="209"/>
      <point x="302" y="146"/>
      <point x="240" y="146" type="curve" smooth="yes"/>
      <point x="231" y="146"/>
      <point x="198" y="147"/>
      <point x="187" y="179" type="curve"/>
      <point x="179" y="177" type="line"/>
      <point x="194" y="144"/>
      <point x="223" y="138"/>
      <point x="242" y="138" type="curve" smooth="yes"/>
      <point x="274" y="138"/>
      <point x="300" y="150"/>
      <point x="319" y="170" type="curve"/>
      <point x="282" y="98"/>
      <point x="254" y="40"/>
      <point x="217" y="-31" type="curve"/>
      <point x="122" y="-16"/>
      <point x="56" y="62"/>
    </contour>
    <contour>
      <point x="496" y="210" type="curve" smooth="yes"/>
      <point x="496" y="73"/>
      <point x="371" y="-33"/>
      <point x="246" y="-33" type="curve" smooth="yes"/>
      <point x="234" y="-33" type="line" smooth="yes"/>
      <point x="231" y="-33"/>
      <point x="229" y="-32"/>
      <point x="226" y="-32" type="curve"/>
      <point x="434" y="375" type="line"/>
      <point x="440" y="365" type="line" smooth="yes"/>
      <point x="468" y="317"/>
      <point x="496" y="267"/>
    </contour>
    <contour>
      <point x="404" y="527" type="curve" smooth="yes"/>
      <point x="404" y="624"/>
      <point x="486" y="663"/>
      <point x="545" y="663" type="curve" smooth="yes"/>
      <point x="554" y="663"/>
      <point x="562" y="663"/>
      <point x="570" y="661" type="curve"/>
      <point x="440" y="406" type="line"/>
      <point x="421" y="441"/>
      <point x="404" y="484"/>
    </contour>
  </outline>
</glyph>
<glyph name="ampersand" format="2">
  <advance width="713"/>
  <unicode hex="0026"/>
  <outline>
    <contour>
      <point x="591" y="795" type="curve" smooth="yes"/>
      <point x="521" y="795"/>
      <point x="437" y="692"/>
      <point x="426" y="553" type="curve"/>
      <point x="401" y="540"/>
      <point x="379" y="529"/>
      <point x="360" y="522" type="curve"/>
      <point x="182" y="438"/>
      <point x="64" y="333"/>
      <point x="52" y="186" type="curve"/>
      <point x="53" y="55"/>
      <point x="146" y="-25"/>
      <point x="252" y="-25" type="curve" smooth="yes"/>
      <point x="335" y="-25"/>
      <point x="418" y="15"/>
      <point x="483" y="72" type="curve"/>
      <point x="483" y="70" type="line"/>
      <point x="479" y="-17"/>
      <point x="417" y="-116"/>
      <point x="318" y="-116" type="curve" smooth="yes"/>
      <point x="301" y="-116"/>
      <point x="285" y="-109"/>
      <point x="270" y="-88" type="curve"/>
      <point x="268" y="-99" type="line"/>
      <point x="278" y="-118"/>
      <point x="298" y="-125"/>
      <point x="319" y="-125" type="curve" smooth="yes"/>
      <point x="422" y="-125"/>
      <point x="490" y="-30"/>
      <point x="494" y="65" type="curve" smooth="yes"/>
      <point x="494" y="82" type="line"/>
      <point x="555" y="144"/>
      <point x="610" y="234"/>
      <point x="613" y="298" type="curve" smooth="yes"/>
      <point x="618" y="402"/>
      <point x="550" y="449"/>
      <point x="474" y="449" type="curve" smooth="yes"/>
      <point x="464" y="449"/>
      <point x="456" y="448"/>
      <point x="446" y="446" type="curve"/>
      <point x="444" y="470"/>
      <point x="442" y="495"/>
      <point x="442" y="519" type="curve" smooth="yes"/>
      <point x="442" y="529"/>
      <point x="442" y="538"/>
      <point x="443" y="548" type="curve"/>
      <point x="443" y="551" type="line"/>
      <point x="531" y="599"/>
      <point x="633" y="674"/>
      <point x="633" y="752" type="curve" smooth="yes"/>
      <point x="633" y="777"/>
      <point x="614" y="795"/>
    </contour>
    <contour>
      <point x="247" y="247" type="curve" smooth="yes"/>
      <point x="245" y="197"/>
      <point x="270" y="143"/>
      <point x="320" y="143" type="curve" smooth="yes"/>
      <point x="327" y="143"/>
      <point x="334" y="143"/>
      <point x="343" y="148" type="curve"/>
      <point x="341" y="156" type="line"/>
      <point x="333" y="151"/>
      <point x="328" y="151"/>
      <point x="324" y="151" type="curve" smooth="yes"/>
      <point x="286" y="151"/>
      <point x="268" y="206"/>
      <point x="267" y="250" type="curve"/>
      <point x="275" y="348"/>
      <point x="352" y="420"/>
      <point x="430" y="437" type="curve"/>
      <point x="436" y="391"/>
      <point x="445" y="343"/>
      <point x="455" y="299" type="curve" smooth="yes"/>
      <point x="469" y="235"/>
      <point x="482" y="154"/>
      <point x="483" y="90" type="curve"/>
      <point x="422" y="32"/>
      <point x="335" y="-17"/>
      <point x="252" y="-17" type="curve" smooth="yes"/>
      <point x="151" y="-17"/>
      <point x="66" y="50"/>
      <point x="73" y="180" type="curve" smooth="yes"/>
      <point x="80" y="336"/>
      <point x="222" y="441"/>
      <point x="364" y="513" type="curve"/>
      <point x="383" y="521"/>
      <point x="403" y="529"/>
      <point x="426" y="542" type="curve"/>
      <point x="426" y="539" type="line"/>
      <point x="424" y="506"/>
      <point x="426" y="475"/>
      <point x="429" y="444" type="curve"/>
      <point x="338" y="426"/>
      <point x="252" y="352"/>
    </contour>
    <contour>
      <point x="431" y="445" type="line"/>
      <point x="430" y="445"/>
      <point x="429" y="444"/>
      <point x="429" y="444" type="curve"/>
      <point x="429" y="443" type="line"/>
    </contour>
    <contour>
      <point x="467" y="441" type="curve" smooth="yes"/>
      <point x="535" y="441"/>
      <point x="596" y="396"/>
      <point x="591" y="296" type="curve" smooth="yes"/>
      <point x="588" y="235"/>
      <point x="550" y="161"/>
      <point x="494" y="101" type="curve"/>
      <point x="492" y="162"/>
      <point x="480" y="236"/>
      <point x="469" y="300" type="curve" smooth="yes"/>
      <point x="461" y="346"/>
      <point x="452" y="393"/>
      <point x="447" y="440" type="curve"/>
      <point x="453" y="441"/>
      <point x="460" y="441"/>
    </contour>
    <contour>
      <point x="445" y="440" type="line"/>
      <point x="447" y="440" type="line"/>
      <point x="447" y="442" type="line"/>
    </contour>
    <contour>
      <point x="615" y="750" type="curve" smooth="yes"/>
      <point x="615" y="680"/>
      <point x="525" y="607"/>
      <point x="443" y="562" type="curve"/>
      <point x="453" y="683"/>
      <point x="519" y="779"/>
      <point x="583" y="779" type="curve" smooth="yes"/>
      <point x="603" y="779"/>
      <point x="615" y="764"/>
    </contour>
  </outline>
</glyph>
<glyph name="comma" format="2">
  <advance width="302"/>
  <unicode hex="002C"/>
  <outline>
    <contour>
      <point x="38" y="42" type="curve" smooth="yes"/>
      <point x="22" y="42"/>
      <point x="7" y="28"/>
      <point x="7" y="13" type="curve" smooth="yes"/>
      <point x="7" y="4"/>
      <point x="12" y="-5"/>
      <point x="24" y="-5" type="curve" smooth="yes"/>
      <point x="31" y="-5" type="line"/>
      <point x="32" y="-7"/>
      <point x="30" y="-13"/>
      <point x="29" y="-15" type="curve"/>
      <point x="15" y="-35"/>
      <point x="0" y="-53"/>
      <point x="-20" y="-67" type="curve"/>
      <point x="-18" y="-76" type="line"/>
      <point x="13" y="-55"/>
      <point x="56" y="-12"/>
      <point x="56" y="19" type="curve" smooth="yes"/>
      <point x="56" y="33"/>
      <point x="47" y="42"/>
    </contour>
  </outline>
</glyph>
<glyph name="hyphen" format="2">
  <advance width="504"/>
  <unicode hex="002D"/>
  <outline>
    <contour>
      <point x="79" y="314" type="line"/>
      <point x="411" y="314" type="line"/>
      <point x="411" y="323" type="line"/>
      <point x="79" y="323" type="line"/>
    </contour>
  </outline>
</glyph>
<glyph name="zero" format="2">
  <advance width="532"/>
  <unicode hex="0030"/>
  <outline>
    <contour>
      <point x="52" y="328" type="curve" smooth="yes"/>
      <point x="30" y="273"/>
      <point x="17" y="219"/>
      <point x="15" y="171" type="curve" smooth="yes"/>
      <point x="10" y="59"/>
      <point x="60" y="-29"/>
      <point x="156" y="-29" type="curve" smooth="yes"/>
      <point x="283" y="-29"/>
      <point x="464" y="134"/>
      <point x="543" y="319" type="curve" smooth="yes"/>
      <point x="566" y="371"/>
      <point x="578" y="428"/>
      <point x="581" y="474" type="curve" smooth="yes"/>
      <point x="588" y="589"/>
      <point x="532" y="674"/>
      <point x="437" y="674" type="curve" smooth="yes"/>
      <point x="302" y="674"/>
      <point x="129" y="520"/>
    </contour>
    <contour>
      <point x="66" y="321" type="curve" smooth="yes"/>
      <point x="144" y="512"/>
      <point x="309" y="666"/>
      <point x="436" y="666" type="curve" smooth="yes"/>
      <point x="525" y="666"/>
      <point x="572" y="588"/>
      <point x="564" y="476" type="curve" smooth="yes"/>
      <point x="561" y="433"/>
      <point x="548" y="379"/>
      <point x="527" y="325" type="curve" smooth="yes"/>
      <point x="448" y="141"/>
      <point x="282" y="-20"/>
      <point x="158" y="-20" type="curve" smooth="yes"/>
      <point x="69" y="-20"/>
      <point x="25" y="61"/>
      <point x="29" y="168" type="curve" smooth="yes"/>
      <point x="32" y="213"/>
      <point x="45" y="266"/>
    </contour>
  </outline>
</glyph>
<glyph name="two" format="2">
  <advance width="538"/>
  <unicode hex="0032"/>
  <outline>
    <contour>
      <point x="-35" y="-6" type="curve" smooth="yes"/>
      <point x="-10" y="-6"/>
      <point x="25" y="8"/>
      <point x="64" y="28" type="curve"/>
      <point x="75" y="24"/>
      <point x="90" y="17"/>
      <point x="101" y="12" type="curve" smooth="yes"/>
      <point x="143" y="-6"/>
      <point x="199" y="-27"/>
      <point x="267" y="-27" type="curve" smooth="yes"/>
      <point x="317" y="-27"/>
      <point x="368" y="-15"/>
      <point x="405" y="11" type="curve" smooth="yes"/>
      <point x="439" y="35"/>
      <point x="464" y="76"/>
      <point x="461" y="122" type="curve"/>
      <point x="453" y="123" type="line"/>
      <point x="457" y="82"/>
      <point x="429" y="45"/>
      <point x="397" y="22" type="curve" smooth="yes"/>
      <point x="360" y="-4"/>
      <point x="312" y="-19"/>
      <point x="267" y="-19" type="curve" smooth="yes"/>
      <point x="197" y="-19"/>
      <point x="151" y="0"/>
      <point x="107" y="19" type="curve" smooth="yes"/>
      <point x="74" y="32" type="line"/>
      <point x="268" y="137"/>
      <point x="591" y="431"/>
      <point x="591" y="563" type="curve" smooth="yes"/>
      <point x="591" y="640"/>
      <point x="526" y="686"/>
      <point x="446" y="686" type="curve" smooth="yes"/>
      <point x="343" y="686"/>
      <point x="222" y="592"/>
      <point x="222" y="486" type="curve" smooth="yes"/>
      <point x="222" y="462"/>
      <point x="235" y="421"/>
      <point x="264" y="419" type="curve"/>
      <point x="266" y="427" type="line"/>
      <point x="240" y="430"/>
      <point x="235" y="459"/>
      <point x="235" y="480" type="curve" smooth="yes"/>
      <point x="235" y="582"/>
      <point x="347" y="678"/>
      <point x="446" y="678" type="curve" smooth="yes"/>
      <point x="516" y="678"/>
      <point x="576" y="646"/>
      <point x="576" y="570" type="curve" smooth="yes"/>
      <point x="576" y="446"/>
      <point x="250" y="144"/>
      <point x="61" y="38" type="curve"/>
      <point x="38" y="46"/>
      <point x="15" y="53"/>
      <point x="-15" y="53" type="curve" smooth="yes"/>
      <point x="-37" y="53"/>
      <point x="-72" y="45"/>
      <point x="-72" y="19" type="curve" smooth="yes"/>
      <point x="-72" y="-2"/>
      <point x="-51" y="-6"/>
    </contour>
    <contour>
      <point x="-54" y="21" type="curve" smooth="yes"/>
      <point x="-54" y="30"/>
      <point x="-42" y="43"/>
      <point x="-16" y="43" type="curve" smooth="yes"/>
      <point x="7" y="43"/>
      <point x="30" y="39"/>
      <point x="51" y="32" type="curve"/>
      <point x="15" y="14"/>
      <point x="-13" y="4"/>
      <point x="-33" y="4" type="curve" smooth="yes"/>
      <point x="-45" y="4"/>
      <point x="-54" y="10"/>
    </contour>
  </outline>
</glyph>
<glyph name="three" format="2">
  <advance width="394"/>
  <unicode hex="0033"/>
  <outline>
    <contour>
      <point x="252" y="301" type="curve"/>
      <point x="298" y="271"/>
      <point x="329" y="216"/>
      <point x="329" y="150" type="curve" smooth="yes"/>
      <point x="329" y="-41"/>
      <point x="120" y="-288"/>
      <point x="-141" y="-288" type="curve" smooth="yes"/>
      <point x="-186" y="-288"/>
      <point x="-292" y="-264"/>
      <point x="-286" y="-187" type="curve" smooth="yes"/>
      <point x="-285" y="-179"/>
      <point x="-284" y="-172"/>
      <point x="-273" y="-161" type="curve"/>
      <point x="-282" y="-159" type="line"/>
      <point x="-294" y="-175"/>
      <point x="-296" y="-184"/>
      <point x="-297" y="-202" type="curve" smooth="yes"/>
      <point x="-302" y="-273"/>
      <point x="-187" y="-297"/>
      <point x="-141" y="-297" type="curve" smooth="yes"/>
      <point x="90" y="-297"/>
      <point x="350" y="-84"/>
      <point x="350" y="137" type="curve" smooth="yes"/>
      <point x="350" y="207"/>
      <point x="313" y="270"/>
      <point x="262" y="304" type="curve"/>
      <point x="365" y="351"/>
      <point x="472" y="455"/>
      <point x="472" y="567" type="curve" smooth="yes"/>
      <point x="472" y="646"/>
      <point x="412" y="686"/>
      <point x="336" y="686" type="curve" smooth="yes"/>
      <point x="233" y="686"/>
      <point x="105" y="592"/>
      <point x="97" y="486" type="curve" smooth="yes"/>
      <point x="96" y="462"/>
      <point x="106" y="421"/>
      <point x="135" y="419" type="curve"/>
      <point x="137" y="427" type="line"/>
      <point x="112" y="430"/>
      <point x="108" y="459"/>
      <point x="110" y="480" type="curve" smooth="yes"/>
      <point x="118" y="582"/>
      <point x="236" y="678"/>
      <point x="336" y="678" type="curve" smooth="yes"/>
      <point x="398" y="678"/>
      <point x="451" y="635"/>
      <point x="451" y="569" type="curve" smooth="yes"/>
      <point x="451" y="464"/>
      <point x="332" y="347"/>
      <point x="251" y="311" type="curve"/>
      <point x="229" y="323"/>
      <point x="195" y="333"/>
      <point x="168" y="333" type="curve" smooth="yes"/>
      <point x="137" y="333"/>
      <point x="118" y="321"/>
      <point x="117" y="311" type="curve" smooth="yes"/>
      <point x="116" y="299"/>
      <point x="139" y="288"/>
      <point x="173" y="288" type="curve" smooth="yes"/>
      <point x="199" y="288"/>
      <point x="235" y="293"/>
    </contour>
    <contour>
      <point x="172" y="324" type="curve" smooth="yes"/>
      <point x="196" y="324"/>
      <point x="219" y="317"/>
      <point x="240" y="307" type="curve"/>
      <point x="219" y="301"/>
      <point x="197" y="296"/>
      <point x="176" y="296" type="curve" smooth="yes"/>
      <point x="147" y="296"/>
      <point x="135" y="304"/>
      <point x="135" y="312" type="curve"/>
      <point x="136" y="318"/>
      <point x="151" y="324"/>
    </contour>
  </outline>
</glyph>
<glyph name="four" format="2">
  <advance width="517"/>
  <unicode hex="0034"/>
  <outline>
    <contour>
      <point x="342" y="842" type="line"/>
      <point x="390" y="830"/>
      <point x="405" y="757"/>
      <point x="406" y="713" type="curve"/>
      <point x="394" y="485"/>
      <point x="153" y="175"/>
      <point x="0" y="41" type="curve"/>
      <point x="-25" y="39"/>
      <point x="-40" y="23"/>
      <point x="-40" y="11" type="curve" smooth="yes"/>
      <point x="-40" y="6"/>
      <point x="-39" y="3"/>
      <point x="-38" y="0" type="curve"/>
      <point x="-20" y="-1" type="line"/>
      <point x="-14" y="6"/>
      <point x="-3" y="26"/>
      <point x="-2" y="28" type="curve"/>
      <point x="3" y="30"/>
      <point x="9" y="31"/>
      <point x="16" y="31" type="curve" smooth="yes"/>
      <point x="64" y="31"/>
      <point x="102" y="20"/>
      <point x="142" y="7" type="curve" smooth="yes"/>
      <point x="180" y="-5"/>
      <point x="216" y="-18"/>
      <point x="272" y="-22" type="curve"/>
      <point x="250" y="-75"/>
      <point x="231" y="-127"/>
      <point x="213" y="-176" type="curve"/>
      <point x="236" y="-176" type="line"/>
      <point x="254" y="-128"/>
      <point x="273" y="-75"/>
      <point x="294" y="-23" type="curve"/>
      <point x="300" y="-24"/>
      <point x="307" y="-24"/>
      <point x="313" y="-24" type="curve" smooth="yes"/>
      <point x="363" y="-24"/>
      <point x="417" y="-13"/>
      <point x="454" y="13" type="curve" smooth="yes"/>
      <point x="488" y="36"/>
      <point x="507" y="78"/>
      <point x="504" y="125" type="curve"/>
      <point x="496" y="125" type="line"/>
      <point x="500" y="84"/>
      <point x="475" y="48"/>
      <point x="443" y="25" type="curve" smooth="yes"/>
      <point x="406" y="-1"/>
      <point x="358" y="-16"/>
      <point x="313" y="-16" type="curve" smooth="yes"/>
      <point x="309" y="-16"/>
      <point x="306" y="-15"/>
      <point x="303" y="-15" type="curve" smooth="yes"/>
      <point x="297" y="-15" type="line"/>
      <point x="401" y="245"/>
      <point x="530" y="534"/>
      <point x="611" y="618" type="curve"/>
      <point x="604" y="619" type="line"/>
      <point x="519" y="531"/>
      <point x="377" y="234"/>
      <point x="275" y="-14" type="curve"/>
      <point x="223" y="-10"/>
      <point x="182" y="3"/>
      <point x="145" y="15" type="curve" smooth="yes"/>
      <point x="105" y="28"/>
      <point x="67" y="40"/>
      <point x="12" y="41" type="curve"/>
      <point x="167" y="178"/>
      <point x="406" y="483"/>
      <point x="417" y="714" type="curve"/>
      <point x="416" y="761"/>
      <point x="394" y="838"/>
      <point x="343" y="850" type="curve"/>
    </contour>
  </outline>
</glyph>
<glyph name="five" format="2">
  <advance width="394"/>
  <unicode hex="0035"/>
  <outline>
    <contour>
      <point x="136" y="393" type="line"/>
      <point x="147" y="407"/>
      <point x="175" y="408"/>
      <point x="192" y="408" type="curve" smooth="yes"/>
      <point x="296" y="408"/>
      <point x="350" y="318"/>
      <point x="350" y="217" type="curve" smooth="yes"/>
      <point x="350" y="-1"/>
      <point x="116" y="-285"/>
      <point x="-187" y="-285" type="curve" smooth="yes"/>
      <point x="-238" y="-285"/>
      <point x="-358" y="-258"/>
      <point x="-351" y="-170" type="curve" smooth="yes"/>
      <point x="-350" y="-162"/>
      <point x="-349" y="-154"/>
      <point x="-337" y="-142" type="curve"/>
      <point x="-346" y="-140" type="line"/>
      <point x="-360" y="-158"/>
      <point x="-362" y="-168"/>
      <point x="-363" y="-187" type="curve" smooth="yes"/>
      <point x="-369" y="-269"/>
      <point x="-239" y="-295"/>
      <point x="-187" y="-295" type="curve" smooth="yes"/>
      <point x="78" y="-295"/>
      <point x="369" y="-53"/>
      <point x="369" y="200" type="curve" smooth="yes"/>
      <point x="369" y="312"/>
      <point x="301" y="417"/>
      <point x="185" y="417" type="curve" smooth="yes"/>
      <point x="166" y="417"/>
      <point x="158" y="416"/>
      <point x="151" y="414" type="curve"/>
      <point x="190" y="464"/>
      <point x="223" y="557"/>
      <point x="239" y="630" type="curve"/>
      <point x="239" y="629" type="line"/>
      <point x="246" y="640"/>
      <point x="261" y="649"/>
      <point x="276" y="649" type="curve" smooth="yes"/>
      <point x="290" y="649"/>
      <point x="310" y="642"/>
      <point x="328" y="636" type="curve" smooth="yes"/>
      <point x="348" y="629"/>
      <point x="368" y="623"/>
      <point x="386" y="623" type="curve" smooth="yes"/>
      <point x="411" y="623"/>
      <point x="454" y="631"/>
      <point x="463" y="666" type="curve"/>
      <point x="459" y="668" type="line"/>
      <point x="444" y="640"/>
      <point x="422" y="636"/>
      <point x="399" y="636" type="curve" smooth="yes"/>
      <point x="385" y="636"/>
      <point x="361" y="643"/>
      <point x="344" y="649" type="curve" smooth="yes"/>
      <point x="326" y="655"/>
      <point x="308" y="661"/>
      <point x="291" y="661" type="curve" smooth="yes"/>
      <point x="273" y="661"/>
      <point x="253" y="652"/>
      <point x="241" y="643" type="curve"/>
      <point x="245" y="660"/>
      <point x="247" y="677"/>
      <point x="248" y="693" type="curve"/>
      <point x="240" y="693" type="line"/>
      <point x="239" y="675"/>
      <point x="236" y="654"/>
      <point x="231" y="631" type="curve" smooth="yes"/>
      <point x="214" y="554"/>
      <point x="175" y="452"/>
      <point x="133" y="405" type="curve"/>
      <point x="127" y="402"/>
      <point x="123" y="396"/>
      <point x="121" y="389" type="curve"/>
    </contour>
  </outline>
</glyph>
<glyph name="six" format="2">
  <advance width="578"/>
  <unicode hex="0036"/>
  <outline>
    <contour>
      <point x="731" y="834" type="line"/>
      <point x="721" y="837"/>
      <point x="708" y="838"/>
      <point x="694" y="838" type="curve" smooth="yes"/>
      <point x="629" y="838"/>
      <point x="530" y="804"/>
      <point x="446" y="749" type="curve" smooth="yes"/>
      <point x="244" y="617"/>
      <point x="24" y="370"/>
      <point x="24" y="135" type="curve" smooth="yes"/>
      <point x="24" y="50"/>
      <point x="56" y="-38"/>
      <point x="181" y="-38" type="curve" smooth="yes"/>
      <point x="336" y="-38"/>
      <point x="555" y="156"/>
      <point x="555" y="352" type="curve" smooth="yes"/>
      <point x="555" y="446"/>
      <point x="498" y="509"/>
      <point x="419" y="509" type="curve" smooth="yes"/>
      <point x="313" y="509"/>
      <point x="227" y="441"/>
      <point x="167" y="349" type="curve" smooth="yes"/>
      <point x="145" y="314"/>
      <point x="123" y="270"/>
      <point x="112" y="228" type="curve"/>
      <point x="120" y="226" type="line"/>
      <point x="131" y="267"/>
      <point x="156" y="314"/>
      <point x="176" y="347" type="curve"/>
      <point x="267" y="475"/>
      <point x="369" y="500"/>
      <point x="415" y="500" type="curve" smooth="yes"/>
      <point x="486" y="500"/>
      <point x="538" y="454"/>
      <point x="538" y="369" type="curve" smooth="yes"/>
      <point x="538" y="211"/>
      <point x="371" y="-29"/>
      <point x="181" y="-29" type="curve" smooth="yes"/>
      <point x="72" y="-29"/>
      <point x="42" y="53"/>
      <point x="42" y="133" type="curve" smooth="yes"/>
      <point x="42" y="372"/>
      <point x="263" y="619"/>
      <point x="449" y="741" type="curve" smooth="yes"/>
      <point x="520" y="788"/>
      <point x="618" y="826"/>
      <point x="691" y="826" type="curve" smooth="yes"/>
      <point x="703" y="826"/>
      <point x="716" y="825"/>
      <point x="731" y="821" type="curve"/>
    </contour>
  </outline>
</glyph>
<glyph name="colon" format="2">
  <advance width="302"/>
  <unicode hex="003A"/>
  <outline>
    <contour>
      <point x="3" y="16" type="curve"/>
      <point x="0" y="4"/>
      <point x="5" y="-10"/>
      <point x="21" y="-10" type="curve" smooth="yes"/>
      <point x="35" y="-10"/>
      <point x="50" y="-1"/>
      <point x="54" y="14" type="curve"/>
      <point x="60" y="30"/>
      <point x="50" y="41"/>
      <point x="37" y="41" type="curve" smooth="yes"/>
      <point x="22" y="41"/>
      <point x="8" y="30"/>
    </contour>
    <contour>
      <point x="162" y="419" type="curve"/>
      <point x="159" y="407"/>
      <point x="164" y="393"/>
      <point x="180" y="393" type="curve" smooth="yes"/>
      <point x="194" y="393"/>
      <point x="209" y="402"/>
      <point x="213" y="417" type="curve"/>
      <point x="219" y="433"/>
      <point x="209" y="444"/>
      <point x="196" y="444" type="curve" smooth="yes"/>
      <point x="181" y="444"/>
      <point x="167" y="433"/>
    </contour>
  </outline>
</glyph>
<glyph name="at" format="2">
  <advance width="673"/>
  <unicode hex="0040"/>
  <outline>
    <contour>
      <point x="219" y="-101" type="curve" smooth="yes"/>
      <point x="270" y="-101"/>
      <point x="384" y="-75"/>
      <point x="457" y="14" type="curve"/>
      <point x="448" y="16" type="line"/>
      <point x="379" y="-68"/>
      <point x="269" y="-93"/>
      <point x="219" y="-93" type="curve" smooth="yes"/>
      <point x="55" y="-93"/>
      <point x="-12" y="58"/>
      <point x="-12" y="194" type="curve" smooth="yes"/>
      <point x="-12" y="432"/>
      <point x="201" y="734"/>
      <point x="453" y="734" type="curve" smooth="yes"/>
      <point x="604" y="734"/>
      <point x="682" y="623"/>
      <point x="682" y="472" type="curve" smooth="yes"/>
      <point x="682" y="314"/>
      <point x="557" y="114"/>
      <point x="440" y="114" type="curve" smooth="yes"/>
      <point x="390" y="114"/>
      <point x="373" y="149"/>
      <point x="373" y="193" type="curve" smooth="yes"/>
      <point x="373" y="238"/>
      <point x="390" y="293"/>
      <point x="409" y="332" type="curve" smooth="yes"/>
      <point x="516" y="556" type="line"/>
      <point x="491" y="555" type="line"/>
      <point x="390" y="334" type="line" smooth="yes"/>
      <point x="389" y="332"/>
      <point x="387" y="326"/>
      <point x="386" y="325" type="curve"/>
      <point x="384" y="322"/>
      <point x="381" y="315"/>
      <point x="380" y="312" type="curve"/>
      <point x="335" y="218"/>
      <point x="260" y="129"/>
      <point x="215" y="129" type="curve" smooth="yes"/>
      <point x="190" y="129"/>
      <point x="179" y="151"/>
      <point x="179" y="190" type="curve" smooth="yes"/>
      <point x="179" y="200"/>
      <point x="179" y="212"/>
      <point x="181" y="224" type="curve" smooth="yes"/>
      <point x="186" y="263"/>
      <point x="195" y="298"/>
      <point x="212" y="340" type="curve" smooth="yes"/>
      <point x="264" y="460"/>
      <point x="348" y="557"/>
      <point x="400" y="557" type="curve" smooth="yes"/>
      <point x="437" y="557"/>
      <point x="447" y="532"/>
      <point x="442" y="503" type="curve" smooth="yes"/>
      <point x="438" y="475"/>
      <point x="423" y="444"/>
      <point x="402" y="424" type="curve"/>
      <point x="403" y="417" type="line"/>
      <point x="428" y="441"/>
      <point x="448" y="475"/>
      <point x="452" y="503" type="curve" smooth="yes"/>
      <point x="456" y="535"/>
      <point x="441" y="565"/>
      <point x="400" y="565" type="curve" smooth="yes"/>
      <point x="339" y="565"/>
      <point x="245" y="473"/>
      <point x="195" y="350" type="curve" smooth="yes"/>
      <point x="179" y="310"/>
      <point x="168" y="275"/>
      <point x="162" y="234" type="curve" smooth="yes"/>
      <point x="154" y="168"/>
      <point x="177" y="118"/>
      <point x="213" y="118" type="curve" smooth="yes"/>
      <point x="258" y="118"/>
      <point x="322" y="188"/>
      <point x="365" y="263" type="curve"/>
      <point x="360" y="242"/>
      <point x="357" y="219"/>
      <point x="357" y="199" type="curve" smooth="yes"/>
      <point x="357" y="148"/>
      <point x="377" y="106"/>
      <point x="440" y="106" type="curve" smooth="yes"/>
      <point x="558" y="106"/>
      <point x="690" y="312"/>
      <point x="690" y="472" type="curve" smooth="yes"/>
      <point x="690" y="618"/>
      <point x="616" y="742"/>
      <point x="453" y="742" type="curve" smooth="yes"/>
      <point x="200" y="742"/>
      <point x="-20" y="443"/>
      <point x="-20" y="194" type="curve" smooth="yes"/>
      <point x="-20" y="44"/>
      <point x="55" y="-101"/>
    </contour>
  </outline>
</glyph>
<glyph name="M" format="2">
  <advance width="1167"/>
  <unicode hex="004D"/>
  <outline>
    <contour>
      <point x="831" y="872" type="curve" smooth="yes"/>
      <point x="814" y="862"/>
      <point x="800" y="846"/>
      <point x="788" y="827" type="curve"/>
      <point x="669" y="740"/>
      <point x="531" y="522"/>
      <point x="450" y="388" type="curve" smooth="yes"/>
      <point x="417" y="333" type="line" smooth="yes"/>
      <point x="325" y="188"/>
      <point x="157" y="-62"/>
      <point x="-35" y="-50" type="curve" smooth="yes"/>
      <point x="-83" y="-48"/>
      <point x="-155" y="-9"/>
      <point x="-155" y="63" type="curve" smooth="yes"/>
      <point x="-155" y="78"/>
      <point x="-151" y="96"/>
      <point x="-143" y="116" type="curve"/>
      <point x="-147" y="118" type="line"/>
      <point x="-159" y="95"/>
      <point x="-163" y="74"/>
      <point x="-163" y="54" type="curve" smooth="yes"/>
      <point x="-163" y="-22"/>
      <point x="-91" y="-59"/>
      <point x="-35" y="-61" type="curve" smooth="yes"/>
      <point x="185" y="-73"/>
      <point x="328" y="143"/>
      <point x="435" y="317" type="curve" smooth="yes"/>
      <point x="453" y="346" type="line" smooth="yes"/>
      <point x="467" y="371"/>
      <point x="485" y="401"/>
      <point x="500" y="426" type="curve" smooth="yes"/>
      <point x="571" y="550"/>
      <point x="677" y="734"/>
      <point x="779" y="811" type="curve"/>
      <point x="739" y="733"/>
      <point x="734" y="605"/>
      <point x="734" y="502" type="curve" smooth="yes"/>
      <point x="734" y="438" type="line"/>
      <point x="593" y="271"/>
      <point x="479" y="98"/>
      <point x="467" y="4" type="curve" smooth="yes"/>
      <point x="466" y="-4"/>
      <point x="465" y="-12"/>
      <point x="465" y="-19" type="curve" smooth="yes"/>
      <point x="465" y="-76"/>
      <point x="495" y="-107"/>
      <point x="531" y="-107" type="curve" smooth="yes"/>
      <point x="613" y="-107"/>
      <point x="729" y="44"/>
      <point x="744" y="194" type="curve" smooth="yes"/>
      <point x="750" y="260"/>
      <point x="752" y="328"/>
      <point x="752" y="394" type="curve" smooth="yes"/>
      <point x="752" y="443" type="line"/>
      <point x="954" y="679"/>
      <point x="1221" y="912"/>
      <point x="1341" y="912" type="curve" smooth="yes"/>
      <point x="1348" y="912"/>
      <point x="1351" y="909"/>
      <point x="1350" y="904" type="curve"/>
      <point x="1349" y="892"/>
      <point x="1331" y="869"/>
      <point x="1298" y="836" type="curve" smooth="yes"/>
      <point x="1119" y="654"/>
      <point x="880" y="247"/>
      <point x="880" y="-35" type="curve" smooth="yes"/>
      <point x="880" y="-122"/>
      <point x="916" y="-196"/>
      <point x="1003" y="-196" type="curve" smooth="yes"/>
      <point x="1094" y="-196"/>
      <point x="1120" y="-131"/>
      <point x="1121" y="-101" type="curve" smooth="yes"/>
      <point x="1121" y="-88"/>
      <point x="1116" y="-60"/>
      <point x="1092" y="-51" type="curve"/>
      <point x="1090" y="-55" type="line"/>
      <point x="1106" y="-67"/>
      <point x="1111" y="-84"/>
      <point x="1110" y="-93" type="curve"/>
      <point x="1110" y="-120"/>
      <point x="1085" y="-188"/>
      <point x="1003" y="-188" type="curve" smooth="yes"/>
      <point x="932" y="-188"/>
      <point x="900" y="-121"/>
      <point x="900" y="-41" type="curve" smooth="yes"/>
      <point x="900" y="221"/>
      <point x="1139" y="665"/>
      <point x="1306" y="833" type="curve" smooth="yes"/>
      <point x="1340" y="867"/>
      <point x="1367" y="895"/>
      <point x="1369" y="909" type="curve" smooth="yes"/>
      <point x="1370" y="918"/>
      <point x="1364" y="925"/>
      <point x="1352" y="925" type="curve" smooth="yes"/>
      <point x="1221" y="925"/>
      <point x="958" y="697"/>
      <point x="752" y="458" type="curve"/>
      <point x="751" y="498"/>
      <point x="751" y="532"/>
      <point x="751" y="570" type="curve" smooth="yes"/>
      <point x="751" y="661"/>
      <point x="766" y="763"/>
      <point x="797" y="823" type="curve"/>
      <point x="811" y="831"/>
      <point x="827" y="840"/>
      <point x="841" y="845" type="curve" smooth="yes"/>
      <point x="868" y="856"/>
      <point x="880" y="866"/>
      <point x="880" y="873" type="curve" smooth="yes"/>
      <point x="880" y="885"/>
      <point x="852" y="884"/>
    </contour>
    <contour>
      <point x="484" y="2" type="curve" smooth="yes"/>
      <point x="496" y="90"/>
      <point x="597" y="257"/>
      <point x="734" y="422" type="curve"/>
      <point x="734" y="357"/>
      <point x="731" y="291"/>
      <point x="726" y="223" type="curve" smooth="yes"/>
      <point x="716" y="83"/>
      <point x="602" y="-96"/>
      <point x="525" y="-96" type="curve" smooth="yes"/>
      <point x="497" y="-96"/>
      <point x="481" y="-78"/>
      <point x="481" y="-32" type="curve" smooth="yes"/>
      <point x="481" y="-22"/>
      <point x="482" y="-11"/>
    </contour>
    <contour>
      <point x="757" y="929" type="line"/>
      <point x="728" y="858"/>
      <point x="678" y="833"/>
      <point x="602" y="833" type="curve" smooth="yes"/>
      <point x="552" y="833"/>
      <point x="490" y="846"/>
      <point x="439" y="857" type="curve" smooth="yes"/>
      <point x="391" y="868"/>
      <point x="343" y="878"/>
      <point x="305" y="878" type="curve" smooth="yes"/>
      <point x="142" y="878"/>
      <point x="-1" y="728"/>
      <point x="-1" y="580" type="curve" smooth="yes"/>
      <point x="-1" y="480"/>
      <point x="58" y="371"/>
      <point x="185" y="368" type="curve" smooth="yes"/>
      <point x="314" y="368"/>
      <point x="440" y="481"/>
      <point x="440" y="615" type="curve" smooth="yes"/>
      <point x="440" y="700"/>
      <point x="378" y="745"/>
      <point x="309" y="745" type="curve" smooth="yes"/>
      <point x="221" y="745"/>
      <point x="137" y="672"/>
      <point x="137" y="599" type="curve" smooth="yes"/>
      <point x="137" y="581"/>
      <point x="144" y="561"/>
      <point x="160" y="554" type="curve"/>
      <point x="165" y="554" type="line"/>
      <point x="155" y="570"/>
      <point x="151" y="583"/>
      <point x="151" y="596" type="curve" smooth="yes"/>
      <point x="151" y="667"/>
      <point x="223" y="736"/>
      <point x="308" y="736" type="curve" smooth="yes"/>
      <point x="368" y="736"/>
      <point x="422" y="699"/>
      <point x="422" y="616" type="curve" smooth="yes"/>
      <point x="422" y="489"/>
      <point x="307" y="386"/>
      <point x="194" y="376" type="curve"/>
      <point x="69" y="378"/>
      <point x="14" y="476"/>
      <point x="14" y="568" type="curve" smooth="yes"/>
      <point x="14" y="695"/>
      <point x="142" y="867"/>
      <point x="313" y="867" type="curve" smooth="yes"/>
      <point x="350" y="867"/>
      <point x="393" y="857"/>
      <point x="438" y="847" type="curve" smooth="yes"/>
      <point x="488" y="836"/>
      <point x="540" y="824"/>
      <point x="590" y="824" type="curve" smooth="yes"/>
      <point x="674" y="824"/>
      <point x="732" y="847"/>
      <point x="767" y="919" type="curve"/>
    </contour>
    <contour>
      <point x="833" y="864" type="curve"/>
      <point x="861" y="878"/>
      <point x="859" y="864"/>
      <point x="839" y="855" type="curve" smooth="yes"/>
      <point x="807" y="840" type="line"/>
      <point x="815" y="851"/>
      <point x="823" y="858"/>
    </contour>
  </outline>
</glyph>
<glyph name="P" format="2">
  <advance width="809"/>
  <unicode hex="0050"/>
  <outline>
    <contour>
      <point x="836" y="688" type="curve" smooth="yes"/>
      <point x="836" y="533"/>
      <point x="704" y="373"/>
      <point x="544" y="373" type="curve" smooth="yes"/>
      <point x="515" y="373"/>
      <point x="471" y="387"/>
      <point x="474" y="406" type="curve"/>
      <point x="466" y="406" type="line"/>
      <point x="463" y="383"/>
      <point x="510" y="365"/>
      <point x="544" y="365" type="curve" smooth="yes"/>
      <point x="715" y="365"/>
      <point x="859" y="522"/>
      <point x="859" y="684" type="curve" smooth="yes"/>
      <point x="859" y="772"/>
      <point x="818" y="853"/>
      <point x="745" y="911" type="curve"/>
      <point x="789" y="964"/>
      <point x="841" y="1018"/>
      <point x="912" y="1020" type="curve"/>
      <point x="912" y="1030" type="line"/>
      <point x="857" y="1030"/>
      <point x="799" y="985"/>
      <point x="739" y="916" type="curve"/>
      <point x="673" y="965"/>
      <point x="583" y="997"/>
      <point x="477" y="997" type="curve" smooth="yes"/>
      <point x="183" y="997"/>
      <point x="-50" y="759"/>
      <point x="-50" y="553" type="curve" smooth="yes"/>
      <point x="-50" y="445"/>
      <point x="14" y="316"/>
      <point x="160" y="316" type="curve" smooth="yes"/>
      <point x="297" y="320"/>
      <point x="426" y="433"/>
      <point x="443" y="573" type="curve" smooth="yes"/>
      <point x="457" y="689"/>
      <point x="381" y="748"/>
      <point x="295" y="748" type="curve" smooth="yes"/>
      <point x="204" y="748"/>
      <point x="114" y="672"/>
      <point x="100" y="596" type="curve" smooth="yes"/>
      <point x="96" y="571"/>
      <point x="103" y="532"/>
      <point x="129" y="530" type="curve"/>
      <point x="114" y="550"/>
      <point x="109" y="574"/>
      <point x="114" y="596" type="curve"/>
      <point x="122" y="671"/>
      <point x="205" y="740"/>
      <point x="294" y="740" type="curve" smooth="yes"/>
      <point x="369" y="740"/>
      <point x="437" y="686"/>
      <point x="426" y="574" type="curve" smooth="yes"/>
      <point x="407" y="441"/>
      <point x="288" y="332"/>
      <point x="162" y="324" type="curve"/>
      <point x="22" y="327"/>
      <point x="-37" y="443"/>
      <point x="-37" y="541" type="curve" smooth="yes"/>
      <point x="-37" y="743"/>
      <point x="192" y="988"/>
      <point x="483" y="988" type="curve" smooth="yes"/>
      <point x="587" y="988"/>
      <point x="671" y="956"/>
      <point x="731" y="907" type="curve"/>
      <point x="609" y="762"/>
      <point x="467" y="497"/>
      <point x="375" y="323" type="curve" smooth="yes"/>
      <point x="307" y="195"/>
      <point x="157" y="-21"/>
      <point x="-13" y="-11" type="curve" smooth="yes"/>
      <point x="-55" y="-9"/>
      <point x="-117" y="24"/>
      <point x="-117" y="87" type="curve" smooth="yes"/>
      <point x="-117" y="100"/>
      <point x="-114" y="115"/>
      <point x="-107" y="132" type="curve"/>
      <point x="-111" y="134" type="line"/>
      <point x="-121" y="115"/>
      <point x="-124" y="96"/>
      <point x="-124" y="79" type="curve" smooth="yes"/>
      <point x="-124" y="13"/>
      <point x="-61" y="-19"/>
      <point x="-13" y="-21" type="curve" smooth="yes"/>
      <point x="190" y="-32"/>
      <point x="318" y="167"/>
      <point x="404" y="329" type="curve" smooth="yes"/>
      <point x="431" y="382" type="line" smooth="yes"/>
      <point x="518" y="551"/>
      <point x="630" y="771"/>
      <point x="736" y="901" type="curve"/>
      <point x="799" y="845"/>
      <point x="836" y="767"/>
    </contour>
  </outline>
</glyph>
<glyph name="Q" format="2">
  <advance width="1015"/>
  <unicode hex="0051"/>
  <outline>
    <contour>
      <point x="339" y="497" type="curve"/>
      <point x="325" y="517"/>
      <point x="320" y="541"/>
      <point x="323" y="564" type="curve" smooth="yes"/>
      <point x="330" y="644"/>
      <point x="415" y="718"/>
      <point x="509" y="718" type="curve" smooth="yes"/>
      <point x="590" y="718"/>
      <point x="661" y="663"/>
      <point x="650" y="541" type="curve" smooth="yes"/>
      <point x="635" y="374"/>
      <point x="482" y="239"/>
      <point x="309" y="239" type="curve" smooth="yes"/>
      <point x="161" y="239"/>
      <point x="107" y="371"/>
      <point x="106" y="475" type="curve"/>
      <point x="122" y="676"/>
      <point x="343" y="925"/>
      <point x="608" y="925" type="curve" smooth="yes"/>
      <point x="832" y="925"/>
      <point x="938" y="757"/>
      <point x="931" y="559" type="curve" smooth="yes"/>
      <point x="907" y="247"/>
      <point x="572" y="-77"/>
      <point x="267" y="-91" type="curve"/>
      <point x="242" y="-75" type="line"/>
      <point x="215" y="-57" type="line" smooth="yes"/>
      <point x="115" y="8"/>
      <point x="22" y="68"/>
      <point x="-87" y="68" type="curve" smooth="yes"/>
      <point x="-113" y="68"/>
      <point x="-128" y="51"/>
      <point x="-128" y="32" type="curve" smooth="yes"/>
      <point x="-128" y="-8"/>
      <point x="-30" y="-98"/>
      <point x="259" y="-99" type="curve"/>
      <point x="370" y="-165"/>
      <point x="513" y="-242"/>
      <point x="648" y="-242" type="curve" smooth="yes"/>
      <point x="836" y="-242"/>
      <point x="943" y="-119"/>
      <point x="918" y="-31" type="curve"/>
      <point x="909" y="-33" type="line"/>
      <point x="932" y="-117"/>
      <point x="804" y="-222"/>
      <point x="624" y="-222" type="curve" smooth="yes"/>
      <point x="492" y="-222"/>
      <point x="383" y="-163"/>
      <point x="279" y="-99" type="curve"/>
      <point x="582" y="-86"/>
      <point x="928" y="221"/>
      <point x="952" y="539" type="curve" smooth="yes"/>
      <point x="960" y="741"/>
      <point x="848" y="939"/>
      <point x="599" y="939" type="curve" smooth="yes"/>
      <point x="329" y="939"/>
      <point x="108" y="693"/>
      <point x="93" y="490" type="curve" smooth="yes"/>
      <point x="90" y="373"/>
      <point x="153" y="231"/>
      <point x="308" y="231" type="curve" smooth="yes"/>
      <point x="488" y="231"/>
      <point x="654" y="371"/>
      <point x="669" y="540" type="curve" smooth="yes"/>
      <point x="679" y="663"/>
      <point x="603" y="726"/>
      <point x="512" y="726" type="curve" smooth="yes"/>
      <point x="413" y="726"/>
      <point x="320" y="646"/>
      <point x="309" y="564" type="curve" smooth="yes"/>
      <point x="306" y="536"/>
      <point x="311" y="503"/>
    </contour>
    <contour>
      <point x="-83" y="52" type="curve" smooth="yes"/>
      <point x="17" y="52"/>
      <point x="140" y="-22"/>
      <point x="238" y="-83" type="curve" smooth="yes"/>
      <point x="250" y="-91" type="line"/>
      <point x="-20" y="-89"/>
      <point x="-120" y="-5"/>
      <point x="-120" y="32" type="curve" smooth="yes"/>
      <point x="-120" y="47"/>
      <point x="-102" y="52"/>
    </contour>
  </outline>
</glyph>
<glyph name="W" format="2">
  <advance width="1308"/>
  <unicode hex="0057"/>
  <outline>
    <contour>
      <point x="827" y="-57" type="curve"/>
      <point x="844" y="-47"/>
      <point x="859" y="-31"/>
      <point x="872" y="-11" type="curve"/>
      <point x="1019" y="94"/>
      <point x="1197" y="362"/>
      <point x="1272" y="482" type="curve" smooth="yes"/>
      <point x="1359" y="622"/>
      <point x="1508" y="868"/>
      <point x="1710" y="868" type="curve" smooth="yes"/>
      <point x="1789" y="868"/>
      <point x="1838" y="817"/>
      <point x="1838" y="757" type="curve" smooth="yes"/>
      <point x="1838" y="739"/>
      <point x="1833" y="719"/>
      <point x="1823" y="699" type="curve"/>
      <point x="1827" y="697" type="line"/>
      <point x="1843" y="719"/>
      <point x="1849" y="742"/>
      <point x="1849" y="763" type="curve" smooth="yes"/>
      <point x="1849" y="830"/>
      <point x="1783" y="877"/>
      <point x="1705" y="877" type="curve" smooth="yes"/>
      <point x="1492" y="877"/>
      <point x="1371" y="679"/>
      <point x="1266" y="508" type="curve" smooth="yes"/>
      <point x="1258" y="494"/>
      <point x="1249" y="481"/>
      <point x="1241" y="468" type="curve" smooth="yes"/>
      <point x="1173" y="356"/>
      <point x="1019" y="105"/>
      <point x="882" y="5" type="curve"/>
      <point x="924" y="82"/>
      <point x="940" y="206"/>
      <point x="940" y="307" type="curve" smooth="yes"/>
      <point x="940" y="324" type="line"/>
      <point x="1066" y="460"/>
      <point x="1159" y="618"/>
      <point x="1159" y="757" type="curve" smooth="yes"/>
      <point x="1157" y="813"/>
      <point x="1128" y="869"/>
      <point x="1068" y="869" type="curve" smooth="yes"/>
      <point x="1000" y="869"/>
      <point x="904" y="786"/>
      <point x="904" y="634" type="curve" smooth="yes"/>
      <point x="904" y="582"/>
      <point x="907" y="511"/>
      <point x="911" y="443" type="curve" smooth="yes"/>
      <point x="917" y="318" type="line"/>
      <point x="817" y="209"/>
      <point x="694" y="114"/>
      <point x="576" y="57" type="curve" smooth="yes"/>
      <point x="552" y="45"/>
      <point x="513" y="27"/>
      <point x="475" y="10" type="curve"/>
      <point x="617" y="154"/>
      <point x="771" y="441"/>
      <point x="771" y="634" type="curve" smooth="yes"/>
      <point x="771" y="795"/>
      <point x="688" y="938"/>
      <point x="478" y="938" type="curve" smooth="yes"/>
      <point x="291" y="938"/>
      <point x="72" y="801"/>
      <point x="72" y="565" type="curve" smooth="yes"/>
      <point x="72" y="466"/>
      <point x="131" y="358"/>
      <point x="258" y="355" type="curve" smooth="yes"/>
      <point x="387" y="355"/>
      <point x="513" y="468"/>
      <point x="513" y="602" type="curve" smooth="yes"/>
      <point x="513" y="687"/>
      <point x="451" y="732"/>
      <point x="382" y="732" type="curve" smooth="yes"/>
      <point x="294" y="732"/>
      <point x="210" y="659"/>
      <point x="210" y="586" type="curve" smooth="yes"/>
      <point x="210" y="568"/>
      <point x="217" y="541"/>
      <point x="238" y="541" type="curve"/>
      <point x="228" y="557"/>
      <point x="224" y="570"/>
      <point x="224" y="583" type="curve" smooth="yes"/>
      <point x="224" y="654"/>
      <point x="296" y="723"/>
      <point x="381" y="723" type="curve" smooth="yes"/>
      <point x="441" y="723"/>
      <point x="495" y="686"/>
      <point x="495" y="603" type="curve" smooth="yes"/>
      <point x="495" y="476"/>
      <point x="380" y="373"/>
      <point x="267" y="363" type="curve"/>
      <point x="142" y="365"/>
      <point x="87" y="462"/>
      <point x="87" y="553" type="curve" smooth="yes"/>
      <point x="87" y="738"/>
      <point x="239" y="929"/>
      <point x="478" y="929" type="curve" smooth="yes"/>
      <point x="675" y="929"/>
      <point x="750" y="810"/>
      <point x="750" y="654" type="curve" smooth="yes"/>
      <point x="750" y="452"/>
      <point x="597" y="139"/>
      <point x="453" y="0" type="curve"/>
      <point x="383" y="-30" type="line" smooth="yes"/>
      <point x="342" y="-48"/>
      <point x="334" y="-67"/>
      <point x="357" y="-67" type="curve" smooth="yes"/>
      <point x="366" y="-67"/>
      <point x="377" y="-65"/>
      <point x="393" y="-57" type="curve" smooth="yes"/>
      <point x="413" y="-47"/>
      <point x="434" y="-28"/>
      <point x="460" y="-6" type="curve"/>
      <point x="503" y="13"/>
      <point x="551" y="35"/>
      <point x="580" y="49" type="curve" smooth="yes"/>
      <point x="695" y="107"/>
      <point x="816" y="198"/>
      <point x="918" y="301" type="curve"/>
      <point x="919" y="277"/>
      <point x="919" y="257"/>
      <point x="919" y="236" type="curve" smooth="yes"/>
      <point x="919" y="145"/>
      <point x="898" y="50"/>
      <point x="864" y="-6" type="curve"/>
      <point x="848" y="-16"/>
      <point x="831" y="-25"/>
      <point x="817" y="-30" type="curve" smooth="yes"/>
      <point x="773" y="-47"/>
      <point x="768" y="-67"/>
      <point x="791" y="-67" type="curve" smooth="yes"/>
      <point x="800" y="-67"/>
      <point x="811" y="-64"/>
    </contour>
    <contour>
      <point x="930" y="527" type="curve" smooth="yes"/>
      <point x="927" y="566"/>
      <point x="925" y="598"/>
      <point x="925" y="621" type="curve" smooth="yes"/>
      <point x="925" y="791"/>
      <point x="1012" y="859"/>
      <point x="1073" y="859" type="curve" smooth="yes"/>
      <point x="1126" y="859"/>
      <point x="1147" y="804"/>
      <point x="1148" y="765" type="curve" smooth="yes"/>
      <point x="1148" y="639"/>
      <point x="1062" y="481"/>
      <point x="940" y="343" type="curve"/>
      <point x="939" y="413"/>
      <point x="934" y="476"/>
    </contour>
    <contour>
      <point x="940" y="339" type="line"/>
      <point x="940" y="343" type="line"/>
      <point x="937" y="340" type="line"/>
    </contour>
    <contour>
      <point x="388" y="-51" type="curve" smooth="yes"/>
      <point x="361" y="-63"/>
      <point x="360" y="-51"/>
      <point x="385" y="-40" type="curve" smooth="yes"/>
      <point x="402" y="-33"/>
      <point x="416" y="-26"/>
      <point x="433" y="-18" type="curve"/>
      <point x="425" y="-25"/>
      <point x="408" y="-41"/>
    </contour>
    <contour>
      <point x="825" y="-49" type="curve"/>
      <point x="797" y="-63"/>
      <point x="799" y="-50"/>
      <point x="819" y="-40" type="curve"/>
      <point x="828" y="-37"/>
      <point x="843" y="-28"/>
      <point x="853" y="-23" type="curve"/>
      <point x="845" y="-33"/>
      <point x="835" y="-43"/>
    </contour>
  </outline>
</glyph>
<glyph name="bracketleft" format="2">
  <advance width="402"/>
  <unicode hex="005B"/>
  <outline>
    <contour>
      <point x="-98" y="-297" type="line"/>
      <point x="55" y="-297" type="line"/>
      <point x="57" y="-289" type="line"/>
      <point x="-73" y="-289" type="line"/>
      <point x="446" y="889" type="line"/>
      <point x="577" y="889" type="line"/>
      <point x="579" y="897" type="line"/>
      <point x="427" y="897" type="line"/>
    </contour>
  </outline>
</glyph>
<glyph name="asciicircum" format="2">
  <advance width="548"/>
  <unicode hex="005E"/>
  <outline>
    <contour>
      <point x="282" y="673" type="line"/>
      <point x="282" y="673"/>
      <point x="409" y="768"/>
      <point x="429" y="783" type="curve"/>
      <point x="483" y="678" type="line"/>
      <point x="490" y="680" type="line"/>
      <point x="446" y="818" type="line"/>
      <point x="279" y="680" type="line"/>
    </contour>
  </outline>
</glyph>
<glyph name="g" format="2">
  <advance width="446"/>
  <unicode hex="0067"/>
  <outline>
    <contour>
      <point x="273" y="556" type="curve" smooth="yes"/>
      <point x="317" y="556"/>
      <point x="330" y="528"/>
      <point x="324" y="495" type="curve"/>
      <point x="328" y="495" type="line"/>
      <point x="336" y="533"/>
      <point x="324" y="565"/>
      <point x="273" y="565" type="curve" smooth="yes"/>
      <point x="188" y="565"/>
      <point x="61" y="441"/>
      <point x="-3" y="281" type="curve" smooth="yes"/>
      <point x="-28" y="222"/>
      <point x="-46" y="158"/>
      <point x="-46" y="97" type="curve" smooth="yes"/>
      <point x="-46" y="38"/>
      <point x="-21" y="3"/>
      <point x="17" y="3" type="curve" smooth="yes"/>
      <point x="63" y="3"/>
      <point x="134" y="71"/>
      <point x="199" y="155" type="curve"/>
      <point x="198" y="152"/>
      <point x="197" y="147"/>
      <point x="197" y="148" type="curve" smooth="yes"/>
      <point x="197" y="149" type="line"/>
      <point x="127" y="2"/>
      <point x="52" y="-144"/>
      <point x="-47" y="-243" type="curve"/>
      <point x="-54" y="-249" type="line"/>
      <point x="-70" y="-240"/>
      <point x="-96" y="-228"/>
      <point x="-112" y="-219" type="curve" smooth="yes"/>
      <point x="-260" y="-143"/>
      <point x="-417" y="-64"/>
      <point x="-571" y="-64" type="curve" smooth="yes"/>
      <point x="-692" y="-64"/>
      <point x="-760" y="-134"/>
      <point x="-760" y="-210" type="curve" smooth="yes"/>
      <point x="-760" y="-301"/>
      <point x="-659" y="-401"/>
      <point x="-456" y="-407" type="curve" smooth="yes"/>
      <point x="-437" y="-407" type="line" smooth="yes"/>
      <point x="-275" y="-407"/>
      <point x="-145" y="-346"/>
      <point x="-48" y="-264" type="curve"/>
      <point x="75" y="-324"/>
      <point x="204" y="-377"/>
      <point x="326" y="-377" type="curve" smooth="yes"/>
      <point x="544" y="-377"/>
      <point x="634" y="-253"/>
      <point x="634" y="-160" type="curve" smooth="yes"/>
      <point x="634" y="-117"/>
      <point x="606" y="-61"/>
      <point x="546" y="-61" type="curve" smooth="yes"/>
      <point x="543" y="-61"/>
      <point x="541" y="-62"/>
      <point x="540" y="-62" type="curve"/>
      <point x="540" y="-66" type="line"/>
      <point x="544" y="-68" type="line"/>
      <point x="600" y="-68"/>
      <point x="622" y="-116"/>
      <point x="622" y="-155" type="curve" smooth="yes"/>
      <point x="622" y="-244"/>
      <point x="527" y="-366"/>
      <point x="312" y="-366" type="curve" smooth="yes"/>
      <point x="196" y="-366"/>
      <point x="79" y="-316"/>
      <point x="-40" y="-256" type="curve"/>
      <point x="80" y="-144"/>
      <point x="148" y="-11"/>
      <point x="218" y="168" type="curve"/>
      <point x="220" y="174"/>
      <point x="226" y="186"/>
      <point x="229" y="193" type="curve"/>
      <point x="280" y="264"/>
      <point x="328" y="345"/>
      <point x="354" y="400" type="curve" smooth="yes"/>
      <point x="398" y="493"/>
      <point x="428" y="567"/>
      <point x="405" y="567" type="curve" smooth="yes"/>
      <point x="389" y="567"/>
      <point x="347" y="519"/>
      <point x="278" y="358" type="curve" smooth="yes"/>
      <point x="261" y="314"/>
      <point x="232" y="237"/>
      <point x="213" y="189" type="curve"/>
      <point x="145" y="97"/>
      <point x="64" y="12"/>
      <point x="17" y="12" type="curve" smooth="yes"/>
      <point x="-13" y="12"/>
      <point x="-28" y="38"/>
      <point x="-28" y="84" type="curve" smooth="yes"/>
      <point x="-28" y="96"/>
      <point x="-27" y="109"/>
      <point x="-25" y="123" type="curve" smooth="yes"/>
      <point x="-18" y="172"/>
      <point x="-7" y="221"/>
      <point x="16" y="274" type="curve" smooth="yes"/>
      <point x="83" y="426"/>
      <point x="201" y="556"/>
    </contour>
    <contour>
      <point x="-456" y="-398" type="line" smooth="yes"/>
      <point x="-652" y="-394"/>
      <point x="-740" y="-301"/>
      <point x="-740" y="-215" type="curve" smooth="yes"/>
      <point x="-740" y="-142"/>
      <point x="-675" y="-76"/>
      <point x="-558" y="-76" type="curve" smooth="yes"/>
      <point x="-424" y="-76"/>
      <point x="-273" y="-150"/>
      <point x="-128" y="-223" type="curve" smooth="yes"/>
      <point x="-105" y="-235"/>
      <point x="-84" y="-246"/>
      <point x="-61" y="-257" type="curve"/>
      <point x="-157" y="-345"/>
      <point x="-280" y="-398"/>
      <point x="-443" y="-398" type="curve" smooth="yes"/>
    </contour>
    <contour>
      <point x="405" y="558" type="curve" smooth="yes"/>
      <point x="417" y="558"/>
      <point x="388" y="491"/>
      <point x="346" y="405" type="curve" smooth="yes"/>
      <point x="325" y="360"/>
      <point x="289" y="299"/>
      <point x="248" y="238" type="curve"/>
      <point x="299" y="356" type="line" smooth="yes"/>
      <point x="368" y="514"/>
      <point x="397" y="558"/>
    </contour>
    <contour>
      <point x="235" y="10" type="line"/>
      <point x="319" y="78"/>
      <point x="397" y="166"/>
      <point x="452" y="282" type="curve"/>
      <point x="444" y="284" type="line"/>
      <point x="389" y="169"/>
      <point x="310" y="82"/>
      <point x="225" y="13" type="curve"/>
    </contour>
  </outline>
</glyph>
<glyph name="p" format="2">
  <advance width="363"/>
  <unicode hex="0070"/>
  <outline>
    <contour>
      <point x="-298" y="-398" type="line"/>
      <point x="54" y="361" type="line"/>
      <point x="55" y="361" type="line"/>
      <point x="117" y="478"/>
      <point x="201" y="555"/>
      <point x="256" y="555" type="curve" smooth="yes"/>
      <point x="289" y="555"/>
      <point x="304" y="524"/>
      <point x="304" y="472" type="curve" smooth="yes"/>
      <point x="304" y="403"/>
      <point x="285" y="336"/>
      <point x="260" y="277" type="curve" smooth="yes"/>
      <point x="194" y="118"/>
      <point x="81" y="-5"/>
      <point x="15" y="-5" type="curve" smooth="yes"/>
      <point x="-33" y="-5"/>
      <point x="-46" y="28"/>
      <point x="-40" y="66" type="curve" smooth="yes"/>
      <point x="-35" y="102"/>
      <point x="-15" y="143"/>
      <point x="12" y="169" type="curve"/>
      <point x="11" y="176" type="line"/>
      <point x="-22" y="146"/>
      <point x="-47" y="102"/>
      <point x="-52" y="66" type="curve" smooth="yes"/>
      <point x="-57" y="24"/>
      <point x="-36" y="-14"/>
      <point x="15" y="-14" type="curve" smooth="yes"/>
      <point x="94" y="-14"/>
      <point x="212" y="108"/>
      <point x="279" y="270" type="curve" smooth="yes"/>
      <point x="304" y="330"/>
      <point x="324" y="395"/>
      <point x="324" y="457" type="curve" smooth="yes"/>
      <point x="324" y="522"/>
      <point x="298" y="565"/>
      <point x="258" y="565" type="curve" smooth="yes"/>
      <point x="212" y="565"/>
      <point x="144" y="514"/>
      <point x="91" y="441" type="curve"/>
      <point x="186" y="646" type="line"/>
      <point x="168" y="646" type="line"/>
      <point x="-321" y="-398" type="line"/>
    </contour>
  </outline>
</glyph>
<glyph name="s" format="2">
  <advance width="296"/>
  <unicode hex="0073"/>
  <outline>
    <contour>
      <point x="6" y="282" type="line"/>
      <point x="73" y="415"/>
      <point x="128" y="524"/>
      <point x="162" y="614" type="curve"/>
      <point x="185" y="551"/>
      <point x="213" y="476"/>
      <point x="213" y="389" type="curve" smooth="yes"/>
      <point x="213" y="362"/>
      <point x="211" y="335"/>
      <point x="205" y="305" type="curve" smooth="yes"/>
      <point x="167" y="113"/>
      <point x="37" y="-6"/>
      <point x="-61" y="-6" type="curve" smooth="yes"/>
      <point x="-109" y="-6"/>
      <point x="-123" y="44"/>
      <point x="-123" y="80" type="curve" smooth="yes"/>
      <point x="-123" y="162"/>
      <point x="-55" y="264"/>
      <point x="21" y="264" type="curve" smooth="yes"/>
      <point x="57" y="264"/>
      <point x="67" y="229"/>
      <point x="66" y="207" type="curve" smooth="yes"/>
      <point x="65" y="189"/>
      <point x="58" y="166"/>
      <point x="44" y="144" type="curve"/>
      <point x="54" y="142" type="line"/>
      <point x="73" y="166"/>
      <point x="84" y="191"/>
      <point x="85" y="212" type="curve" smooth="yes"/>
      <point x="86" y="246"/>
      <point x="62" y="271"/>
      <point x="30" y="272" type="curve" smooth="yes"/>
      <point x="-64" y="275"/>
      <point x="-142" y="169"/>
      <point x="-142" y="85" type="curve" smooth="yes"/>
      <point x="-142" y="31"/>
      <point x="-109" y="-14"/>
      <point x="-61" y="-14" type="curve" smooth="yes"/>
      <point x="47" y="-14"/>
      <point x="189" y="104"/>
      <point x="227" y="305" type="curve" smooth="yes"/>
      <point x="232" y="330"/>
      <point x="234" y="354"/>
      <point x="234" y="377" type="curve" smooth="yes"/>
      <point x="234" y="457"/>
      <point x="203" y="543"/>
      <point x="179" y="604" type="curve" smooth="yes"/>
      <point x="168" y="631" type="line"/>
      <point x="184" y="678"/>
      <point x="196" y="721"/>
      <point x="198" y="754" type="curve" smooth="yes"/>
      <point x="201" y="807"/>
      <point x="183" y="833"/>
      <point x="166" y="833" type="curve" smooth="yes"/>
      <point x="150" y="833"/>
      <point x="128" y="818"/>
      <point x="126" y="768" type="curve" smooth="yes"/>
      <point x="123" y="724"/>
      <point x="140" y="676"/>
      <point x="158" y="626" type="curve"/>
      <point x="126" y="540"/>
      <point x="67" y="422"/>
      <point x="-2" y="284" type="curve"/>
    </contour>
    <contour>
      <point x="138" y="757" type="curve" smooth="yes"/>
      <point x="141" y="802"/>
      <point x="157" y="823"/>
      <point x="169" y="823" type="curve" smooth="yes"/>
      <point x="182" y="823"/>
      <point x="193" y="803"/>
      <point x="190" y="754" type="curve" smooth="yes"/>
      <point x="188" y="724"/>
      <point x="179" y="687"/>
      <point x="164" y="642" type="curve"/>
      <point x="148" y="684"/>
      <point x="136" y="722"/>
    </contour>
  </outline>
</glyph>
<glyph name="yen" format="2">
  <advance width="860"/>
  <unicode hex="00A5"/>
  <outline>
    <contour>
      <point x="524" y="435" type="curve" smooth="yes"/>
      <point x="457" y="464"/>
      <point x="378" y="495"/>
      <point x="302" y="495" type="curve" smooth="yes"/>
      <point x="216" y="495"/>
      <point x="140" y="443"/>
      <point x="140" y="368" type="curve" smooth="yes"/>
      <point x="140" y="354"/>
      <point x="144" y="342"/>
      <point x="153" y="329" type="curve"/>
      <point x="162" y="331" type="line"/>
      <point x="153" y="340"/>
      <point x="149" y="352"/>
      <point x="149" y="364" type="curve" smooth="yes"/>
      <point x="149" y="452"/>
      <point x="243" y="482"/>
      <point x="313" y="482" type="curve" smooth="yes"/>
      <point x="378" y="482"/>
      <point x="457" y="453"/>
      <point x="518" y="427" type="curve" smooth="yes"/>
      <point x="540" y="417" type="line"/>
      <point x="541" y="417" type="line"/>
      <point x="539" y="417" type="line"/>
      <point x="538" y="417" type="line" smooth="yes"/>
      <point x="474" y="417"/>
      <point x="417" y="376"/>
      <point x="376" y="312" type="curve"/>
      <point x="371" y="342"/>
      <point x="344" y="361"/>
      <point x="314" y="361" type="curve" smooth="yes"/>
      <point x="274" y="361"/>
      <point x="218" y="321"/>
      <point x="218" y="247" type="curve" smooth="yes"/>
      <point x="218" y="207"/>
      <point x="238" y="169"/>
      <point x="258" y="133" type="curve" smooth="yes"/>
      <point x="270" y="110" type="line"/>
      <point x="294" y="72"/>
      <point x="310" y="35"/>
      <point x="310" y="3" type="curve" smooth="yes"/>
      <point x="310" y="-29"/>
      <point x="298" y="-99"/>
      <point x="222" y="-99" type="curve" smooth="yes"/>
      <point x="181" y="-99"/>
      <point x="155" y="-63"/>
      <point x="155" y="-29" type="curve" smooth="yes"/>
      <point x="155" y="-12"/>
      <point x="169" y="19"/>
      <point x="190" y="25" type="curve"/>
      <point x="189" y="34" type="line"/>
      <point x="164" y="27"/>
      <point x="147" y="-8"/>
      <point x="147" y="-29" type="curve" smooth="yes"/>
      <point x="147" y="-67"/>
      <point x="177" y="-108"/>
      <point x="226" y="-108" type="curve" smooth="yes"/>
      <point x="310" y="-108"/>
      <point x="322" y="-34"/>
      <point x="322" y="2" type="curve" smooth="yes"/>
      <point x="322" y="13"/>
      <point x="320" y="23"/>
      <point x="317" y="33" type="curve"/>
      <point x="317" y="44" type="line" smooth="yes"/>
      <point x="317" y="121"/>
      <point x="336" y="204"/>
      <point x="367" y="268" type="curve"/>
      <point x="392" y="304"/>
      <point x="437" y="339"/>
      <point x="482" y="339" type="curve" smooth="yes"/>
      <point x="550" y="339"/>
      <point x="580" y="294"/>
      <point x="580" y="243" type="curve" smooth="yes"/>
      <point x="580" y="164"/>
      <point x="496" y="70"/>
      <point x="396" y="70" type="curve" smooth="yes"/>
      <point x="371" y="70"/>
      <point x="347" y="78"/>
      <point x="332" y="94" type="curve"/>
      <point x="329" y="92" type="line"/>
      <point x="344" y="70"/>
      <point x="369" y="62"/>
      <point x="396" y="62" type="curve" smooth="yes"/>
      <point x="505" y="62"/>
      <point x="598" y="161"/>
      <point x="598" y="245" type="curve" smooth="yes"/>
      <point x="598" y="300"/>
      <point x="561" y="349"/>
      <point x="486" y="349" type="curve" smooth="yes"/>
      <point x="447" y="349"/>
      <point x="413" y="332"/>
      <point x="387" y="304" type="curve"/>
      <point x="427" y="367"/>
      <point x="479" y="409"/>
      <point x="538" y="409" type="curve" smooth="yes"/>
      <point x="549" y="409"/>
      <point x="560" y="408"/>
      <point x="572" y="405" type="curve"/>
      <point x="571" y="405" type="line"/>
      <point x="621" y="385"/>
      <point x="672" y="370"/>
      <point x="729" y="370" type="curve" smooth="yes"/>
      <point x="815" y="370"/>
      <point x="916" y="423"/>
      <point x="916" y="498" type="curve" smooth="yes"/>
      <point x="916" y="511"/>
      <point x="912" y="524"/>
      <point x="903" y="537" type="curve"/>
      <point x="894" y="535" type="line"/>
      <point x="903" y="526"/>
      <point x="907" y="514"/>
      <point x="907" y="502" type="curve" smooth="yes"/>
      <point x="907" y="413"/>
      <point x="788" y="383"/>
      <point x="718" y="383" type="curve" smooth="yes"/>
      <point x="650" y="383"/>
      <point x="587" y="408"/>
    </contour>
    <contour>
      <point x="307" y="64" type="curve" smooth="yes"/>
      <point x="307" y="61" type="line"/>
      <point x="301" y="77"/>
      <point x="296" y="82"/>
      <point x="287" y="98" type="curve" smooth="yes"/>
      <point x="277" y="117" type="line" smooth="yes"/>
      <point x="254" y="160"/>
      <point x="230" y="205"/>
      <point x="230" y="249" type="curve" smooth="yes"/>
      <point x="230" y="318"/>
      <point x="280" y="353"/>
      <point x="314" y="353" type="curve" smooth="yes"/>
      <point x="343" y="353"/>
      <point x="368" y="334"/>
      <point x="368" y="303" type="curve" smooth="yes"/>
      <point x="368" y="300" type="line"/>
      <point x="332" y="237"/>
      <point x="307" y="151"/>
    </contour>
  </outline>
</glyph>
<glyph name="threesuperior" format="2">
  <advance width="533"/>
  <unicode hex="00B3"/>
  <outline>
    <contour>
      <point x="360" y="436" type="curve" smooth="yes"/>
      <point x="366" y="437"/>
      <point x="372" y="438"/>
      <point x="376" y="440" type="curve"/>
      <point x="403" y="422"/>
      <point x="421" y="388"/>
      <point x="421" y="348" type="curve" smooth="yes"/>
      <point x="421" y="229"/>
      <point x="290" y="75"/>
      <point x="126" y="75" type="curve" smooth="yes"/>
      <point x="98" y="75"/>
      <point x="32" y="90"/>
      <point x="36" y="136" type="curve"/>
      <point x="36" y="140"/>
      <point x="37" y="144"/>
      <point x="42" y="150" type="curve"/>
      <point x="39" y="153" type="line"/>
      <point x="28" y="144"/>
      <point x="24" y="138"/>
      <point x="23" y="127" type="curve" smooth="yes"/>
      <point x="20" y="80"/>
      <point x="95" y="66"/>
      <point x="126" y="66" type="curve" smooth="yes"/>
      <point x="274" y="66"/>
      <point x="440" y="199"/>
      <point x="440" y="338" type="curve" smooth="yes"/>
      <point x="440" y="384"/>
      <point x="420" y="422"/>
      <point x="386" y="445" type="curve"/>
      <point x="457" y="476"/>
      <point x="512" y="547"/>
      <point x="516" y="601" type="curve" smooth="yes"/>
      <point x="520" y="658"/>
      <point x="478" y="686"/>
      <point x="426" y="686" type="curve" smooth="yes"/>
      <point x="360" y="686"/>
      <point x="276" y="626"/>
      <point x="271" y="559" type="curve" smooth="yes"/>
      <point x="270" y="544"/>
      <point x="277" y="518"/>
      <point x="298" y="517" type="curve"/>
      <point x="299" y="521" type="line"/>
      <point x="285" y="525"/>
      <point x="283" y="543"/>
      <point x="285" y="556" type="curve"/>
      <point x="290" y="619"/>
      <point x="364" y="679"/>
      <point x="426" y="679" type="curve" smooth="yes"/>
      <point x="469" y="679"/>
      <point x="502" y="657"/>
      <point x="498" y="606" type="curve" smooth="yes"/>
      <point x="493" y="555"/>
      <point x="443" y="480"/>
      <point x="375" y="451" type="curve"/>
      <point x="360" y="458"/>
      <point x="338" y="466"/>
      <point x="320" y="466" type="curve" smooth="yes"/>
      <point x="299" y="466"/>
      <point x="284" y="457"/>
      <point x="284" y="449" type="curve"/>
      <point x="283" y="440"/>
      <point x="300" y="432"/>
      <point x="326" y="432" type="curve" smooth="yes"/>
      <point x="337" y="432"/>
      <point x="345" y="433"/>
    </contour>
    <contour>
      <point x="323" y="457" type="curve" smooth="yes"/>
      <point x="338" y="457"/>
      <point x="350" y="453"/>
      <point x="363" y="447" type="curve"/>
      <point x="360" y="446"/>
      <point x="355" y="444"/>
      <point x="354" y="444" type="curve"/>
      <point x="340" y="441"/>
      <point x="332" y="441"/>
      <point x="326" y="441" type="curve" smooth="yes"/>
      <point x="308" y="441"/>
      <point x="300" y="445"/>
      <point x="300" y="450" type="curve" smooth="yes"/>
      <point x="300" y="453"/>
      <point x="310" y="457"/>
    </contour>
  </outline>
</glyph>
<glyph name="guillemotright" format="2">
  <advance width="583"/>
  <unicode hex="00BB"/>
  <outline>
    <contour>
      <point x="250" y="112" type="line"/>
      <point x="445" y="274" type="line"/>
      <point x="249" y="438" type="line"/>
      <point x="247" y="429" type="line"/>
      <point x="303" y="379"/>
      <point x="362" y="324"/>
      <point x="418" y="274" type="curve"/>
      <point x="247" y="119" type="line"/>
    </contour>
    <contour>
      <point x="153" y="112" type="line"/>
      <point x="348" y="274" type="line"/>
      <point x="152" y="438" type="line"/>
      <point x="150" y="429" type="line"/>
      <point x="206" y="379"/>
      <point x="265" y="324"/>
      <point x="321" y="274" type="curve"/>
      <point x="150" y="119" type="line"/>
    </contour>
  </outline>
</glyph>
<glyph name="Ntilde" format="2">
  <advance width="997"/>
  <unicode hex="00D1"/>
  <outline>
    <contour>
      <point x="749" y="644" type="line" smooth="yes"/>
      <point x="749" y="708"/>
      <point x="762" y="769"/>
      <point x="796" y="820" type="curve"/>
      <point x="810" y="830"/>
      <point x="826" y="840"/>
      <point x="841" y="845" type="curve" smooth="yes"/>
      <point x="885" y="862"/>
      <point x="890" y="882"/>
      <point x="867" y="882" type="curve" smooth="yes"/>
      <point x="858" y="882"/>
      <point x="847" y="881"/>
      <point x="831" y="872" type="curve" smooth="yes"/>
      <point x="806" y="858"/>
      <point x="786" y="836"/>
      <point x="771" y="811" type="curve"/>
      <point x="665" y="717"/>
      <point x="565" y="519"/>
      <point x="501" y="392" type="curve" smooth="yes"/>
      <point x="469" y="330" type="line" smooth="yes"/>
      <point x="391" y="185"/>
      <point x="244" y="-62"/>
      <point x="52" y="-50" type="curve" smooth="yes"/>
      <point x="2" y="-47"/>
      <point x="-79" y="-6"/>
      <point x="-79" y="73" type="curve" smooth="yes"/>
      <point x="-79" y="85"/>
      <point x="-76" y="100"/>
      <point x="-71" y="116" type="curve"/>
      <point x="-75" y="118" type="line"/>
      <point x="-83" y="100"/>
      <point x="-86" y="82"/>
      <point x="-86" y="65" type="curve" smooth="yes"/>
      <point x="-86" y="-18"/>
      <point x="-6" y="-57"/>
      <point x="53" y="-61" type="curve" smooth="yes"/>
      <point x="290" y="-68"/>
      <point x="407" y="163"/>
      <point x="502" y="346" type="curve" smooth="yes"/>
      <point x="541" y="427" type="line" smooth="yes"/>
      <point x="595" y="541"/>
      <point x="675" y="705"/>
      <point x="760" y="793" type="curve"/>
      <point x="737" y="746"/>
      <point x="728" y="686"/>
      <point x="728" y="625" type="curve" smooth="yes"/>
      <point x="728" y="554"/>
      <point x="737" y="478"/>
      <point x="745" y="407" type="curve" smooth="yes"/>
      <point x="754" y="327" type="line" smooth="yes"/>
      <point x="760" y="274"/>
      <point x="765" y="223"/>
      <point x="768" y="184" type="curve"/>
      <point x="746" y="131"/>
      <point x="728" y="77"/>
      <point x="713" y="29" type="curve" smooth="yes"/>
      <point x="708" y="12"/>
      <point x="703" y="-5"/>
      <point x="703" y="-17" type="curve" smooth="yes"/>
      <point x="703" y="-36"/>
      <point x="708" y="-48"/>
      <point x="720" y="-48" type="curve" smooth="yes"/>
      <point x="745" y="-49"/>
      <point x="789" y="-6"/>
      <point x="789" y="124" type="curve" smooth="yes"/>
      <point x="789" y="145"/>
      <point x="787" y="170"/>
      <point x="785" y="194" type="curve"/>
      <point x="930" y="531"/>
      <point x="1183" y="911"/>
      <point x="1390" y="911" type="curve" smooth="yes"/>
      <point x="1429" y="911"/>
      <point x="1466" y="883"/>
      <point x="1474" y="840" type="curve"/>
      <point x="1478" y="839" type="line"/>
      <point x="1480" y="845"/>
      <point x="1481" y="851"/>
      <point x="1481" y="857" type="curve" smooth="yes"/>
      <point x="1481" y="894"/>
      <point x="1417" y="923"/>
      <point x="1375" y="923" type="curve" smooth="yes"/>
      <point x="1166" y="923"/>
      <point x="922" y="556"/>
      <point x="782" y="221" type="curve"/>
      <point x="779" y="250"/>
      <point x="775" y="270"/>
      <point x="771" y="301" type="curve" smooth="yes"/>
      <point x="765" y="344"/>
      <point x="758" y="388"/>
      <point x="754" y="432" type="curve" smooth="yes"/>
      <point x="750" y="473"/>
      <point x="749" y="514"/>
      <point x="749" y="553" type="curve" smooth="yes"/>
    </contour>
    <contour>
      <point x="757" y="929" type="line"/>
      <point x="728" y="858"/>
      <point x="678" y="833"/>
      <point x="602" y="833" type="curve" smooth="yes"/>
      <point x="552" y="833"/>
      <point x="490" y="846"/>
      <point x="439" y="857" type="curve" smooth="yes"/>
      <point x="391" y="868"/>
      <point x="343" y="878"/>
      <point x="305" y="878" type="curve" smooth="yes"/>
      <point x="142" y="878"/>
      <point x="-1" y="728"/>
      <point x="-1" y="580" type="curve" smooth="yes"/>
      <point x="-1" y="480"/>
      <point x="58" y="371"/>
      <point x="185" y="368" type="curve" smooth="yes"/>
      <point x="314" y="368"/>
      <point x="440" y="481"/>
      <point x="440" y="615" type="curve" smooth="yes"/>
      <point x="440" y="700"/>
      <point x="378" y="745"/>
      <point x="309" y="745" type="curve" smooth="yes"/>
      <point x="221" y="745"/>
      <point x="137" y="672"/>
      <point x="137" y="599" type="curve" smooth="yes"/>
      <point x="137" y="581"/>
      <point x="145" y="568"/>
      <point x="156" y="552" type="curve"/>
      <point x="165" y="554" type="line"/>
      <point x="155" y="570"/>
      <point x="151" y="583"/>
      <point x="151" y="596" type="curve" smooth="yes"/>
      <point x="151" y="667"/>
      <point x="223" y="736"/>
      <point x="308" y="736" type="curve" smooth="yes"/>
      <point x="368" y="736"/>
      <point x="422" y="699"/>
      <point x="422" y="616" type="curve" smooth="yes"/>
      <point x="422" y="489"/>
      <point x="307" y="386"/>
      <point x="194" y="376" type="curve"/>
      <point x="69" y="378"/>
      <point x="14" y="476"/>
      <point x="14" y="568" type="curve" smooth="yes"/>
      <point x="14" y="695"/>
      <point x="142" y="867"/>
      <point x="313" y="867" type="curve" smooth="yes"/>
      <point x="350" y="867"/>
      <point x="393" y="857"/>
      <point x="438" y="847" type="curve" smooth="yes"/>
      <point x="488" y="836"/>
      <point x="540" y="824"/>
      <point x="590" y="824" type="curve" smooth="yes"/>
      <point x="674" y="824"/>
      <point x="732" y="847"/>
      <point x="767" y="919" type="curve"/>
    </contour>
    <contour>
      <point x="721" y="25" type="curve" smooth="yes"/>
      <point x="734" y="66"/>
      <point x="752" y="113"/>
      <point x="769" y="157" type="curve"/>
      <point x="770" y="149"/>
      <point x="769" y="150"/>
      <point x="769" y="143" type="curve" smooth="yes"/>
      <point x="769" y="45"/>
      <point x="738" y="-31"/>
      <point x="721" y="-31" type="curve" smooth="yes"/>
      <point x="716" y="-31"/>
      <point x="713" y="-26"/>
      <point x="713" y="-15" type="curve" smooth="yes"/>
      <point x="713" y="-7"/>
      <point x="716" y="7"/>
    </contour>
    <contour>
      <point x="849" y="871" type="curve" smooth="yes"/>
      <point x="856" y="871"/>
      <point x="853" y="862"/>
      <point x="839" y="855" type="curve"/>
      <point x="830" y="852"/>
      <point x="819" y="846"/>
      <point x="810" y="841" type="curve"/>
      <point x="819" y="853"/>
      <point x="834" y="871"/>
    </contour>
    <contour>
      <point x="993" y="1116" type="line"/>
      <point x="1013" y="1149"/>
      <point x="1040" y="1161"/>
      <point x="1065" y="1161" type="curve" smooth="yes"/>
      <point x="1088" y="1161"/>
      <point x="1111" y="1152"/>
      <point x="1133" y="1142" type="curve" smooth="yes"/>
      <point x="1154" y="1133"/>
      <point x="1175" y="1123"/>
      <point x="1198" y="1123" type="curve" smooth="yes"/>
      <point x="1225" y="1123"/>
      <point x="1247" y="1140"/>
      <point x="1256" y="1164" type="curve"/>
      <point x="1252" y="1166" type="line"/>
      <point x="1242" y="1147"/>
      <point x="1222" y="1140"/>
      <point x="1204" y="1140" type="curve" smooth="yes"/>
      <point x="1193" y="1140"/>
      <point x="1171" y="1148"/>
      <point x="1149" y="1157" type="curve" smooth="yes"/>
      <point x="1124" y="1167"/>
      <point x="1096" y="1177"/>
      <point x="1079" y="1177" type="curve" smooth="yes"/>
      <point x="1045" y="1177"/>
      <point x="1008" y="1159"/>
      <point x="985" y="1118" type="curve"/>
    </contour>
  </outline>
</glyph>
<glyph name="Otilde" format="2">
  <advance width="879"/>
  <unicode hex="00D5"/>
  <outline>
    <contour>
      <point x="597" y="592" type="line"/>
      <point x="610" y="571"/>
      <point x="614" y="550"/>
      <point x="614" y="529" type="curve" smooth="yes"/>
      <point x="614" y="417"/>
      <point x="508" y="308"/>
      <point x="393" y="308" type="curve" smooth="yes"/>
      <point x="309" y="308"/>
      <point x="239" y="364"/>
      <point x="239" y="487" type="curve" smooth="yes"/>
      <point x="239" y="699"/>
      <point x="435" y="875"/>
      <point x="647" y="875" type="curve" smooth="yes"/>
      <point x="808" y="875"/>
      <point x="875" y="752"/>
      <point x="875" y="615" type="curve" smooth="yes"/>
      <point x="875" y="326"/>
      <point x="594" y="-85"/>
      <point x="262" y="-85" type="curve" smooth="yes"/>
      <point x="79" y="-85"/>
      <point x="-9" y="59"/>
      <point x="-9" y="238" type="curve" smooth="yes"/>
      <point x="-9" y="575"/>
      <point x="331" y="940"/>
      <point x="630" y="940" type="curve"/>
      <point x="628" y="948" type="line"/>
      <point x="329" y="948"/>
      <point x="-26" y="605"/>
      <point x="-26" y="253" type="curve" smooth="yes"/>
      <point x="-26" y="66"/>
      <point x="69" y="-98"/>
      <point x="271" y="-98" type="curve" smooth="yes"/>
      <point x="605" y="-98"/>
      <point x="889" y="308"/>
      <point x="889" y="595" type="curve" smooth="yes"/>
      <point x="889" y="748"/>
      <point x="813" y="885"/>
      <point x="647" y="885" type="curve" smooth="yes"/>
      <point x="430" y="885"/>
      <point x="221" y="709"/>
      <point x="221" y="496" type="curve" smooth="yes"/>
      <point x="221" y="368"/>
      <point x="295" y="299"/>
      <point x="387" y="299" type="curve" smooth="yes"/>
      <point x="514" y="299"/>
      <point x="631" y="412"/>
      <point x="631" y="528" type="curve" smooth="yes"/>
      <point x="631" y="554"/>
      <point x="621" y="577"/>
      <point x="606" y="599" type="curve"/>
    </contour>
    <contour>
      <point x="638" y="1116" type="line"/>
      <point x="658" y="1149"/>
      <point x="685" y="1161"/>
      <point x="710" y="1161" type="curve" smooth="yes"/>
      <point x="733" y="1161"/>
      <point x="756" y="1152"/>
      <point x="778" y="1142" type="curve" smooth="yes"/>
      <point x="799" y="1133"/>
      <point x="820" y="1123"/>
      <point x="843" y="1123" type="curve" smooth="yes"/>
      <point x="870" y="1123"/>
      <point x="892" y="1140"/>
      <point x="901" y="1164" type="curve"/>
      <point x="897" y="1166" type="line"/>
      <point x="887" y="1147"/>
      <point x="867" y="1140"/>
      <point x="849" y="1140" type="curve" smooth="yes"/>
      <point x="838" y="1140"/>
      <point x="816" y="1148"/>
      <point x="794" y="1157" type="curve" smooth="yes"/>
      <point x="769" y="1167"/>
      <point x="741" y="1177"/>
      <point x="724" y="1177" type="curve" smooth="yes"/>
      <point x="690" y="1177"/>
      <point x="653" y="1159"/>
      <point x="630" y="1118" type="curve"/>
    </contour>
  </outline>
</glyph>
<glyph name="Yacute" format="2">
  <advance width="899"/>
  <unicode hex="00DD"/>
  <outline>
    <contour>
      <point x="299" y="113" type="curve" smooth="yes"/>
      <point x="299" y="49"/>
      <point x="322" y="-10"/>
      <point x="397" y="-10" type="curve" smooth="yes"/>
      <point x="505" y="-10"/>
      <point x="673" y="188"/>
      <point x="776" y="361" type="curve"/>
      <point x="742" y="277"/>
      <point x="724" y="220"/>
      <point x="695" y="136" type="curve" smooth="yes"/>
      <point x="651" y="7"/>
      <point x="609" y="-117"/>
      <point x="554" y="-219" type="curve" smooth="yes"/>
      <point x="471" y="-372"/>
      <point x="323" y="-516"/>
      <point x="114" y="-516" type="curve" smooth="yes"/>
      <point x="-11" y="-516"/>
      <point x="-119" y="-423"/>
      <point x="-119" y="-291" type="curve" smooth="yes"/>
      <point x="-119" y="-282"/>
      <point x="-118" y="-269"/>
      <point x="-117" y="-259" type="curve" smooth="yes"/>
      <point x="-98" y="-119"/>
      <point x="27" y="-6"/>
      <point x="143" y="-6" type="curve" smooth="yes"/>
      <point x="226" y="-6"/>
      <point x="272" y="-69"/>
      <point x="267" y="-133" type="curve"/>
      <point x="253" y="-196"/>
      <point x="192" y="-281"/>
      <point x="113" y="-281" type="curve" smooth="yes"/>
      <point x="101" y="-281"/>
      <point x="60" y="-279"/>
      <point x="50" y="-238" type="curve"/>
      <point x="39" y="-240" type="line"/>
      <point x="55" y="-283"/>
      <point x="92" y="-289"/>
      <point x="116" y="-289" type="curve" smooth="yes"/>
      <point x="207" y="-289"/>
      <point x="272" y="-203"/>
      <point x="281" y="-134" type="curve" smooth="yes"/>
      <point x="290" y="-59"/>
      <point x="235" y="2"/>
      <point x="143" y="2" type="curve" smooth="yes"/>
      <point x="19" y="2"/>
      <point x="-120" y="-107"/>
      <point x="-138" y="-256" type="curve" smooth="yes"/>
      <point x="-139" y="-266"/>
      <point x="-140" y="-276"/>
      <point x="-140" y="-286" type="curve" smooth="yes"/>
      <point x="-140" y="-423"/>
      <point x="-18" y="-527"/>
      <point x="118" y="-527" type="curve" smooth="yes"/>
      <point x="336" y="-527"/>
      <point x="508" y="-368"/>
      <point x="579" y="-227" type="curve" smooth="yes"/>
      <point x="635" y="-123"/>
      <point x="676" y="6"/>
      <point x="715" y="131" type="curve" smooth="yes"/>
      <point x="779" y="339"/>
      <point x="847" y="559"/>
      <point x="1007" y="736" type="curve" smooth="yes"/>
      <point x="1111" y="851"/>
      <point x="1216" y="933"/>
      <point x="1332" y="933" type="curve" smooth="yes"/>
      <point x="1365" y="933"/>
      <point x="1426" y="916"/>
      <point x="1434" y="877" type="curve"/>
      <point x="1441" y="883" type="line"/>
      <point x="1433" y="925"/>
      <point x="1369" y="941"/>
      <point x="1327" y="941" type="curve" smooth="yes"/>
      <point x="1200" y="941"/>
      <point x="1094" y="860"/>
      <point x="996" y="750" type="curve" smooth="yes"/>
      <point x="921" y="664"/>
      <point x="859" y="555"/>
      <point x="812" y="449" type="curve"/>
      <point x="719" y="275"/>
      <point x="518" y="0"/>
      <point x="403" y="0" type="curve" smooth="yes"/>
      <point x="338" y="0"/>
      <point x="315" y="45"/>
      <point x="315" y="97" type="curve" smooth="yes"/>
      <point x="315" y="192"/>
      <point x="389" y="340"/>
      <point x="480" y="504" type="curve" smooth="yes"/>
      <point x="550" y="627"/>
      <point x="653" y="738"/>
      <point x="708" y="781" type="curve"/>
      <point x="716" y="788"/>
      <point x="730" y="796"/>
      <point x="739" y="802" type="curve" smooth="yes"/>
      <point x="765" y="818"/>
      <point x="790" y="833"/>
      <point x="790" y="858" type="curve" smooth="yes"/>
      <point x="790" y="935"/>
      <point x="608" y="978"/>
      <point x="469" y="978" type="curve" smooth="yes"/>
      <point x="234" y="978"/>
      <point x="-34" y="836"/>
      <point x="-34" y="595" type="curve" smooth="yes"/>
      <point x="-34" y="496"/>
      <point x="25" y="388"/>
      <point x="152" y="385" type="curve" smooth="yes"/>
      <point x="281" y="385"/>
      <point x="407" y="498"/>
      <point x="407" y="632" type="curve" smooth="yes"/>
      <point x="407" y="717"/>
      <point x="345" y="762"/>
      <point x="276" y="762" type="curve" smooth="yes"/>
      <point x="188" y="762"/>
      <point x="104" y="689"/>
      <point x="104" y="616" type="curve" smooth="yes"/>
      <point x="104" y="598"/>
      <point x="116" y="568"/>
      <point x="132" y="571" type="curve"/>
      <point x="122" y="587"/>
      <point x="118" y="600"/>
      <point x="118" y="613" type="curve" smooth="yes"/>
      <point x="118" y="684"/>
      <point x="190" y="753"/>
      <point x="275" y="753" type="curve" smooth="yes"/>
      <point x="335" y="753"/>
      <point x="389" y="716"/>
      <point x="389" y="633" type="curve" smooth="yes"/>
      <point x="389" y="506"/>
      <point x="274" y="403"/>
      <point x="161" y="393" type="curve"/>
      <point x="36" y="395"/>
      <point x="-19" y="492"/>
      <point x="-19" y="583" type="curve" smooth="yes"/>
      <point x="-19" y="768"/>
      <point x="194" y="957"/>
      <point x="470" y="969" type="curve"/>
      <point x="611" y="967"/>
      <point x="775" y="923"/>
      <point x="775" y="858" type="curve" smooth="yes"/>
      <point x="775" y="838"/>
      <point x="752" y="822"/>
      <point x="730" y="807" type="curve" smooth="yes"/>
      <point x="705" y="790" type="line"/>
      <point x="642" y="740"/>
      <point x="538" y="632"/>
      <point x="459" y="506" type="curve" smooth="yes"/>
      <point x="386" y="389"/>
      <point x="299" y="239"/>
    </contour>
    <contour>
      <point x="966" y="1124" type="line"/>
      <point x="1009" y="1144"/>
      <point x="1057" y="1168"/>
      <point x="1100" y="1189" type="curve"/>
      <point x="1109" y="1194"/>
      <point x="1117" y="1200"/>
      <point x="1117" y="1209" type="curve" smooth="yes"/>
      <point x="1117" y="1217"/>
      <point x="1112" y="1222"/>
      <point x="1103" y="1222" type="curve" smooth="yes"/>
      <point x="1094" y="1222"/>
      <point x="1086" y="1218"/>
      <point x="1082" y="1215" type="curve" smooth="yes"/>
      <point x="963" y="1130" type="line"/>
    </contour>
  </outline>
</glyph>
<glyph name="germandbls" format="2">
  <advance width="403"/>
  <unicode hex="00DF"/>
  <outline>
    <contour>
      <point x="185" y="642" type="line" smooth="yes"/>
      <point x="258" y="790"/>
      <point x="365" y="929"/>
      <point x="455" y="929" type="curve" smooth="yes"/>
      <point x="506" y="929"/>
      <point x="529" y="905"/>
      <point x="529" y="871" type="curve" smooth="yes"/>
      <point x="529" y="827"/>
      <point x="489" y="803"/>
      <point x="440" y="769" type="curve" smooth="yes"/>
      <point x="391" y="735" type="line" smooth="yes"/>
      <point x="328" y="691"/>
      <point x="244" y="615"/>
      <point x="244" y="518" type="curve" smooth="yes"/>
      <point x="244" y="473"/>
      <point x="260" y="425"/>
      <point x="274" y="386" type="curve" smooth="yes"/>
      <point x="284" y="355"/>
      <point x="302" y="297"/>
      <point x="302" y="264" type="curve" smooth="yes"/>
      <point x="302" y="144"/>
      <point x="209" y="-6"/>
      <point x="79" y="-6" type="curve" smooth="yes"/>
      <point x="32" y="-6"/>
      <point x="5" y="20"/>
      <point x="5" y="70" type="curve" smooth="yes"/>
      <point x="5" y="134"/>
      <point x="62" y="264"/>
      <point x="149" y="264" type="curve" smooth="yes"/>
      <point x="175" y="264"/>
      <point x="194" y="246"/>
      <point x="194" y="212" type="curve" smooth="yes"/>
      <point x="194" y="193"/>
      <point x="187" y="167"/>
      <point x="172" y="144" type="curve"/>
      <point x="182" y="142" type="line"/>
      <point x="201" y="166"/>
      <point x="213" y="193"/>
      <point x="213" y="214" type="curve" smooth="yes"/>
      <point x="213" y="252"/>
      <point x="184" y="272"/>
      <point x="148" y="272" type="curve" smooth="yes"/>
      <point x="49" y="272"/>
      <point x="-14" y="135"/>
      <point x="-14" y="77" type="curve" smooth="yes"/>
      <point x="-14" y="19"/>
      <point x="26" y="-15"/>
      <point x="83" y="-15" type="curve" smooth="yes"/>
      <point x="235" y="-15"/>
      <point x="325" y="145"/>
      <point x="325" y="261" type="curve" smooth="yes"/>
      <point x="325" y="311"/>
      <point x="308" y="353"/>
      <point x="290" y="395" type="curve" smooth="yes"/>
      <point x="273" y="435"/>
      <point x="256" y="475"/>
      <point x="256" y="518" type="curve" smooth="yes"/>
      <point x="256" y="613"/>
      <point x="337" y="672"/>
      <point x="405" y="720" type="curve" smooth="yes"/>
      <point x="419" y="730"/>
      <point x="433" y="739"/>
      <point x="447" y="748" type="curve" smooth="yes"/>
      <point x="503" y="784"/>
      <point x="550" y="814"/>
      <point x="550" y="866" type="curve" smooth="yes"/>
      <point x="550" y="901"/>
      <point x="521" y="939"/>
      <point x="461" y="939" type="curve" smooth="yes"/>
      <point x="355" y="939"/>
      <point x="233" y="793"/>
      <point x="164" y="644" type="curve" smooth="yes"/>
      <point x="-131" y="5" type="line"/>
      <point x="-109" y="5" type="line"/>
    </contour>
  </outline>
</glyph>
<glyph name="ae" format="2">
  <advance width="604"/>
  <unicode hex="00E6"/>
  <outline>
    <contour>
      <point x="261" y="556" type="curve" smooth="yes"/>
      <point x="309" y="556"/>
      <point x="322" y="523"/>
      <point x="316" y="485" type="curve" smooth="yes"/>
      <point x="311" y="449"/>
      <point x="291" y="408"/>
      <point x="264" y="382" type="curve"/>
      <point x="265" y="375" type="line"/>
      <point x="298" y="405"/>
      <point x="323" y="449"/>
      <point x="328" y="485" type="curve" smooth="yes"/>
      <point x="333" y="527"/>
      <point x="312" y="565"/>
      <point x="261" y="565" type="curve" smooth="yes"/>
      <point x="182" y="565"/>
      <point x="63" y="440"/>
      <point x="-3" y="281" type="curve" smooth="yes"/>
      <point x="-23" y="230"/>
      <point x="-37" y="181"/>
      <point x="-45" y="131" type="curve" smooth="yes"/>
      <point x="-47" y="119"/>
      <point x="-48" y="105"/>
      <point x="-48" y="94" type="curve" smooth="yes"/>
      <point x="-48" y="29"/>
      <point x="-22" y="-14"/>
      <point x="18" y="-14" type="curve" smooth="yes"/>
      <point x="69" y="-14"/>
      <point x="164" y="71"/>
      <point x="232" y="204" type="curve"/>
      <point x="230" y="194"/>
      <point x="228" y="185"/>
      <point x="227" y="175" type="curve"/>
      <point x="224" y="156"/>
      <point x="222" y="134"/>
      <point x="222" y="117" type="curve" smooth="yes"/>
      <point x="222" y="35"/>
      <point x="258" y="-14"/>
      <point x="315" y="-14" type="curve" smooth="yes"/>
      <point x="431" y="-14"/>
      <point x="542" y="140"/>
      <point x="610" y="282" type="curve"/>
      <point x="602" y="284" type="line"/>
      <point x="537" y="147"/>
      <point x="427" y="-4"/>
      <point x="315" y="-4" type="curve" smooth="yes"/>
      <point x="270" y="-4"/>
      <point x="240" y="37"/>
      <point x="240" y="111" type="curve" smooth="yes"/>
      <point x="240" y="128"/>
      <point x="242" y="147"/>
      <point x="245" y="167" type="curve" smooth="yes"/>
      <point x="256" y="228"/>
      <point x="278" y="286"/>
      <point x="307" y="341" type="curve"/>
      <point x="312" y="318"/>
      <point x="339" y="290"/>
      <point x="383" y="290" type="curve" smooth="yes"/>
      <point x="463" y="290"/>
      <point x="568" y="403"/>
      <point x="581" y="491" type="curve" smooth="yes"/>
      <point x="585" y="525"/>
      <point x="565" y="565"/>
      <point x="526" y="565" type="curve" smooth="yes"/>
      <point x="450" y="565"/>
      <point x="310" y="427"/>
      <point x="249" y="264" type="curve" smooth="yes"/>
      <point x="187" y="119"/>
      <point x="78" y="-4"/>
      <point x="20" y="-4" type="curve" smooth="yes"/>
      <point x="-13" y="-4"/>
      <point x="-28" y="27"/>
      <point x="-28" y="79" type="curve" smooth="yes"/>
      <point x="-28" y="91"/>
      <point x="-27" y="108"/>
      <point x="-25" y="123" type="curve" smooth="yes"/>
      <point x="-18" y="171"/>
      <point x="-5" y="221"/>
      <point x="16" y="274" type="curve"/>
      <point x="84" y="423"/>
      <point x="195" y="556"/>
    </contour>
    <contour>
      <point x="567" y="498" type="curve" smooth="yes"/>
      <point x="556" y="405"/>
      <point x="456" y="299"/>
      <point x="378" y="299" type="curve" smooth="yes"/>
      <point x="339" y="299"/>
      <point x="316" y="330"/>
      <point x="314" y="350" type="curve"/>
      <point x="374" y="463"/>
      <point x="468" y="556"/>
      <point x="525" y="556" type="curve" smooth="yes"/>
      <point x="557" y="556"/>
      <point x="570" y="529"/>
    </contour>
  </outline>
</glyph>
<glyph name="eacute" format="2">
  <advance width="346"/>
  <unicode hex="00E9"/>
  <outline>
    <contour>
      <point x="344" y="284" type="line"/>
      <point x="279" y="147"/>
      <point x="170" y="-4"/>
      <point x="57" y="-4" type="curve" smooth="yes"/>
      <point x="12" y="-4"/>
      <point x="-18" y="37"/>
      <point x="-18" y="111" type="curve" smooth="yes"/>
      <point x="-18" y="128"/>
      <point x="-16" y="147"/>
      <point x="-13" y="167" type="curve" smooth="yes"/>
      <point x="-2" y="228"/>
      <point x="20" y="286"/>
      <point x="49" y="341" type="curve"/>
      <point x="54" y="318"/>
      <point x="81" y="290"/>
      <point x="125" y="290" type="curve" smooth="yes"/>
      <point x="212" y="290"/>
      <point x="324" y="422"/>
      <point x="324" y="500" type="curve" smooth="yes"/>
      <point x="324" y="532"/>
      <point x="304" y="565"/>
      <point x="268" y="565" type="curve" smooth="yes"/>
      <point x="177" y="565"/>
      <point x="5" y="380"/>
      <point x="-31" y="175" type="curve" smooth="yes"/>
      <point x="-34" y="156"/>
      <point x="-36" y="134"/>
      <point x="-36" y="117" type="curve" smooth="yes"/>
      <point x="-36" y="35"/>
      <point x="0" y="-14"/>
      <point x="57" y="-14" type="curve" smooth="yes"/>
      <point x="173" y="-14"/>
      <point x="284" y="140"/>
      <point x="352" y="282" type="curve"/>
    </contour>
    <contour>
      <point x="120" y="299" type="curve" smooth="yes"/>
      <point x="81" y="299"/>
      <point x="58" y="330"/>
      <point x="56" y="350" type="curve"/>
      <point x="116" y="463"/>
      <point x="210" y="556"/>
      <point x="267" y="556" type="curve" smooth="yes"/>
      <point x="296" y="556"/>
      <point x="309" y="534"/>
      <point x="309" y="507" type="curve" smooth="yes"/>
      <point x="309" y="418"/>
      <point x="201" y="299"/>
    </contour>
    <contour>
      <point x="242" y="692" type="line"/>
      <point x="285" y="712"/>
      <point x="333" y="736"/>
      <point x="376" y="757" type="curve"/>
      <point x="385" y="762"/>
      <point x="393" y="768"/>
      <point x="393" y="777" type="curve" smooth="yes"/>
      <point x="393" y="785"/>
      <point x="388" y="790"/>
      <point x="379" y="790" type="curve" smooth="yes"/>
      <point x="370" y="790"/>
      <point x="362" y="786"/>
      <point x="358" y="783" type="curve" smooth="yes"/>
      <point x="239" y="698" type="line"/>
    </contour>
  </outline>
</glyph>
<glyph name="edieresis" format="2">
  <advance width="345"/>
  <unicode hex="00EB"/>
  <outline>
    <contour>
      <point x="343" y="284" type="line"/>
      <point x="278" y="147"/>
      <point x="169" y="-4"/>
      <point x="56" y="-4" type="curve" smooth="yes"/>
      <point x="11" y="-4"/>
      <point x="-19" y="37"/>
      <point x="-19" y="111" type="curve" smooth="yes"/>
      <point x="-19" y="128"/>
      <point x="-17" y="147"/>
      <point x="-14" y="167" type="curve" smooth="yes"/>
      <point x="-3" y="228"/>
      <point x="19" y="286"/>
      <point x="48" y="341" type="curve"/>
      <point x="53" y="318"/>
      <point x="80" y="290"/>
      <point x="124" y="290" type="curve" smooth="yes"/>
      <point x="211" y="290"/>
      <point x="323" y="422"/>
      <point x="323" y="500" type="curve" smooth="yes"/>
      <point x="323" y="532"/>
      <point x="303" y="565"/>
      <point x="267" y="565" type="curve" smooth="yes"/>
      <point x="176" y="565"/>
      <point x="4" y="380"/>
      <point x="-32" y="175" type="curve" smooth="yes"/>
      <point x="-35" y="156"/>
      <point x="-37" y="134"/>
      <point x="-37" y="117" type="curve" smooth="yes"/>
      <point x="-37" y="35"/>
      <point x="-1" y="-14"/>
      <point x="56" y="-14" type="curve" smooth="yes"/>
      <point x="172" y="-14"/>
      <point x="283" y="140"/>
      <point x="351" y="282" type="curve"/>
    </contour>
    <contour>
      <point x="119" y="299" type="curve" smooth="yes"/>
      <point x="80" y="299"/>
      <point x="57" y="330"/>
      <point x="55" y="350" type="curve"/>
      <point x="115" y="463"/>
      <point x="209" y="556"/>
      <point x="266" y="556" type="curve" smooth="yes"/>
      <point x="295" y="556"/>
      <point x="308" y="534"/>
      <point x="308" y="507" type="curve" smooth="yes"/>
      <point x="308" y="418"/>
      <point x="200" y="299"/>
    </contour>
    <contour>
      <point x="256" y="735" type="line"/>
      <point x="254" y="725"/>
      <point x="259" y="715"/>
      <point x="271" y="715" type="curve" smooth="yes"/>
      <point x="282" y="715"/>
      <point x="294" y="722"/>
      <point x="297" y="734" type="curve"/>
      <point x="302" y="747"/>
      <point x="295" y="756"/>
      <point x="283" y="756" type="curve" smooth="yes"/>
      <point x="271" y="756"/>
      <point x="260" y="748"/>
      <point x="256" y="736" type="curve"/>
    </contour>
    <contour>
      <point x="361" y="735" type="line"/>
      <point x="359" y="725"/>
      <point x="364" y="715"/>
      <point x="376" y="715" type="curve" smooth="yes"/>
      <point x="387" y="715"/>
      <point x="399" y="722"/>
      <point x="402" y="734" type="curve"/>
      <point x="407" y="747"/>
      <point x="400" y="756"/>
      <point x="388" y="756" type="curve" smooth="yes"/>
      <point x="376" y="756"/>
      <point x="365" y="748"/>
      <point x="361" y="736" type="curve"/>
    </contour>
  </outline>
</glyph>
<glyph name="iacute" format="2">
  <advance width="187"/>
  <unicode hex="00ED"/>
  <outline>
    <contour>
      <point x="121" y="552" type="line"/>
      <point x="-2" y="283" type="line"/>
      <point x="-57" y="162" type="line" smooth="yes"/>
      <point x="-72" y="128"/>
      <point x="-79" y="94"/>
      <point x="-79" y="68" type="curve" smooth="yes"/>
      <point x="-79" y="26"/>
      <point x="-62" y="-2"/>
      <point x="-35" y="-2" type="curve" smooth="yes"/>
      <point x="35" y="-2"/>
      <point x="131" y="146"/>
      <point x="193" y="282" type="curve"/>
      <point x="185" y="284" type="line"/>
      <point x="126" y="156"/>
      <point x="31" y="6"/>
      <point x="-34" y="6" type="curve" smooth="yes"/>
      <point x="-55" y="6"/>
      <point x="-67" y="27"/>
      <point x="-67" y="60" type="curve" smooth="yes"/>
      <point x="-67" y="83"/>
      <point x="-58" y="119"/>
      <point x="-44" y="151" type="curve" smooth="yes"/>
      <point x="147" y="552" type="line"/>
    </contour>
    <contour>
      <point x="124" y="692" type="line"/>
      <point x="167" y="712"/>
      <point x="215" y="736"/>
      <point x="258" y="757" type="curve"/>
      <point x="267" y="762"/>
      <point x="275" y="768"/>
      <point x="275" y="777" type="curve" smooth="yes"/>
      <point x="275" y="785"/>
      <point x="270" y="790"/>
      <point x="261" y="790" type="curve" smooth="yes"/>
      <point x="252" y="790"/>
      <point x="244" y="786"/>
      <point x="240" y="783" type="curve" smooth="yes"/>
      <point x="121" y="698" type="line"/>
    </contour>
  </outline>
</glyph>
<glyph name="idieresis" format="2">
  <advance width="187"/>
  <unicode hex="00EF"/>
  <outline>
    <contour>
      <point x="121" y="552" type="line"/>
      <point x="-2" y="283" type="line"/>
      <point x="-57" y="162" type="line" smooth="yes"/>
      <point x="-72" y="128"/>
      <point x="-79" y="94"/>
      <point x="-79" y="68" type="curve" smooth="yes"/>
      <point x="-79" y="26"/>
      <point x="-62" y="-2"/>
      <point x="-35" y="-2" type="curve" smooth="yes"/>
      <point x="35" y="-2"/>
      <point x="131" y="146"/>
      <point x="193" y="282" type="curve"/>
      <point x="185" y="284" type="line"/>
      <point x="126" y="156"/>
      <point x="31" y="6"/>
      <point x="-34" y="6" type="curve" smooth="yes"/>
      <point x="-55" y="6"/>
      <point x="-67" y="27"/>
      <point x="-67" y="60" type="curve" smooth="yes"/>
      <point x="-67" y="83"/>
      <point x="-58" y="119"/>
      <point x="-44" y="151" type="curve" smooth="yes"/>
      <point x="147" y="552" type="line"/>
    </contour>
    <contour>
      <point x="127" y="735" type="line"/>
      <point x="125" y="725"/>
      <point x="130" y="715"/>
      <point x="142" y="715" type="curve" smooth="yes"/>
      <point x="153" y="715"/>
      <point x="165" y="722"/>
      <point x="168" y="734" type="curve"/>
      <point x="173" y="747"/>
      <point x="166" y="756"/>
      <point x="154" y="756" type="curve" smooth="yes"/>
      <point x="142" y="756"/>
      <point x="131" y="748"/>
      <point x="127" y="736" type="curve"/>
    </contour>
    <contour>
      <point x="232" y="735" type="line"/>
      <point x="230" y="725"/>
      <point x="235" y="715"/>
      <point x="247" y="715" type="curve" smooth="yes"/>
      <point x="258" y="715"/>
      <point x="270" y="722"/>
      <point x="273" y="734" type="curve"/>
      <point x="278" y="747"/>
      <point x="271" y="756"/>
      <point x="259" y="756" type="curve" smooth="yes"/>
      <point x="247" y="756"/>
      <point x="236" y="748"/>
      <point x="232" y="736" type="curve"/>
    </contour>
  </outline>
</glyph>
<glyph name="edotaccent" format="2">
  <advance width="345"/>
  <unicode hex="0117"/>
  <outline>
    <contour>
      <point x="343" y="284" type="line"/>
      <point x="278" y="147"/>
      <point x="169" y="-4"/>
      <point x="56" y="-4" type="curve" smooth="yes"/>
      <point x="11" y="-4"/>
      <point x="-19" y="37"/>
      <point x="-19" y="111" type="curve" smooth="yes"/>
      <point x="-19" y="128"/>
      <point x="-17" y="147"/>
      <point x="-14" y="167" type="curve" smooth="yes"/>
      <point x="-3" y="228"/>
      <point x="19" y="286"/>
      <point x="48" y="341" type="curve"/>
      <point x="53" y="318"/>
      <point x="80" y="290"/>
      <point x="124" y="290" type="curve" smooth="yes"/>
      <point x="211" y="290"/>
      <point x="323" y="422"/>
      <point x="323" y="500" type="curve" smooth="yes"/>
      <point x="323" y="532"/>
      <point x="303" y="565"/>
      <point x="267" y="565" type="curve" smooth="yes"/>
      <point x="176" y="565"/>
      <point x="4" y="380"/>
      <point x="-32" y="175" type="curve" smooth="yes"/>
      <point x="-35" y="156"/>
      <point x="-37" y="134"/>
      <point x="-37" y="117" type="curve" smooth="yes"/>
      <point x="-37" y="35"/>
      <point x="-1" y="-14"/>
      <point x="56" y="-14" type="curve" smooth="yes"/>
      <point x="172" y="-14"/>
      <point x="283" y="140"/>
      <point x="351" y="282" type="curve"/>
    </contour>
    <contour>
      <point x="119" y="299" type="curve" smooth="yes"/>
      <point x="80" y="299"/>
      <point x="57" y="330"/>
      <point x="55" y="350" type="curve"/>
      <point x="115" y="463"/>
      <point x="209" y="556"/>
      <point x="266" y="556" type="curve" smooth="yes"/>
      <point x="295" y="556"/>
      <point x="308" y="534"/>
      <point x="308" y="507" type="curve" smooth="yes"/>
      <point x="308" y="418"/>
      <point x="200" y="299"/>
    </contour>
    <contour>
      <point x="291" y="736" type="curve" smooth="yes"/>
      <point x="288" y="725"/>
      <point x="294" y="715"/>
      <point x="306" y="715" type="curve" smooth="yes"/>
      <point x="317" y="715"/>
      <point x="328" y="722"/>
      <point x="332" y="734" type="curve" smooth="yes"/>
      <point x="336" y="747"/>
      <point x="330" y="756"/>
      <point x="318" y="756" type="curve" smooth="yes"/>
      <point x="306" y="756"/>
      <point x="294" y="748"/>
    </contour>
  </outline>
</glyph>
<glyph name="gbreve" format="2">
  <advance width="446"/>
  <unicode hex="011F"/>
  <outline>
    <contour>
      <point x="275" y="556" type="curve" smooth="yes"/>
      <point x="319" y="556"/>
      <point x="332" y="528"/>
      <point x="326" y="495" type="curve"/>
      <point x="330" y="495" type="line"/>
      <point x="338" y="533"/>
      <point x="326" y="565"/>
      <point x="275" y="565" type="curve" smooth="yes"/>
      <point x="190" y="565"/>
      <point x="63" y="441"/>
      <point x="-1" y="281" type="curve" smooth="yes"/>
      <point x="-26" y="222"/>
      <point x="-44" y="158"/>
      <point x="-44" y="97" type="curve" smooth="yes"/>
      <point x="-44" y="38"/>
      <point x="-19" y="3"/>
      <point x="19" y="3" type="curve" smooth="yes"/>
      <point x="65" y="3"/>
      <point x="136" y="71"/>
      <point x="201" y="155" type="curve"/>
      <point x="200" y="152"/>
      <point x="199" y="147"/>
      <point x="199" y="148" type="curve" smooth="yes"/>
      <point x="199" y="149" type="line"/>
      <point x="129" y="2"/>
      <point x="54" y="-144"/>
      <point x="-45" y="-243" type="curve"/>
      <point x="-52" y="-249" type="line"/>
      <point x="-68" y="-240"/>
      <point x="-94" y="-228"/>
      <point x="-110" y="-219" type="curve" smooth="yes"/>
      <point x="-258" y="-143"/>
      <point x="-415" y="-64"/>
      <point x="-569" y="-64" type="curve" smooth="yes"/>
      <point x="-690" y="-64"/>
      <point x="-758" y="-134"/>
      <point x="-758" y="-210" type="curve" smooth="yes"/>
      <point x="-758" y="-301"/>
      <point x="-657" y="-401"/>
      <point x="-454" y="-407" type="curve" smooth="yes"/>
      <point x="-435" y="-407" type="line" smooth="yes"/>
      <point x="-273" y="-407"/>
      <point x="-143" y="-346"/>
      <point x="-46" y="-264" type="curve"/>
      <point x="77" y="-324"/>
      <point x="206" y="-377"/>
      <point x="328" y="-377" type="curve" smooth="yes"/>
      <point x="546" y="-377"/>
      <point x="636" y="-253"/>
      <point x="636" y="-160" type="curve" smooth="yes"/>
      <point x="636" y="-117"/>
      <point x="608" y="-61"/>
      <point x="548" y="-61" type="curve" smooth="yes"/>
      <point x="545" y="-61"/>
      <point x="543" y="-62"/>
      <point x="542" y="-62" type="curve"/>
      <point x="542" y="-66" type="line"/>
      <point x="546" y="-68" type="line"/>
      <point x="602" y="-68"/>
      <point x="624" y="-116"/>
      <point x="624" y="-155" type="curve" smooth="yes"/>
      <point x="624" y="-244"/>
      <point x="529" y="-366"/>
      <point x="314" y="-366" type="curve" smooth="yes"/>
      <point x="198" y="-366"/>
      <point x="81" y="-316"/>
      <point x="-38" y="-256" type="curve"/>
      <point x="82" y="-144"/>
      <point x="150" y="-11"/>
      <point x="220" y="168" type="curve"/>
      <point x="222" y="174"/>
      <point x="228" y="186"/>
      <point x="231" y="193" type="curve"/>
      <point x="282" y="264"/>
      <point x="330" y="345"/>
      <point x="356" y="400" type="curve" smooth="yes"/>
      <point x="400" y="493"/>
      <point x="430" y="567"/>
      <point x="407" y="567" type="curve" smooth="yes"/>
      <point x="391" y="567"/>
      <point x="349" y="519"/>
      <point x="280" y="358" type="curve" smooth="yes"/>
      <point x="263" y="314"/>
      <point x="234" y="237"/>
      <point x="215" y="189" type="curve"/>
      <point x="147" y="97"/>
      <point x="66" y="12"/>
      <point x="19" y="12" type="curve" smooth="yes"/>
      <point x="-11" y="12"/>
      <point x="-26" y="38"/>
      <point x="-26" y="84" type="curve" smooth="yes"/>
      <point x="-26" y="96"/>
      <point x="-25" y="109"/>
      <point x="-23" y="123" type="curve" smooth="yes"/>
      <point x="-16" y="172"/>
      <point x="-5" y="221"/>
      <point x="18" y="274" type="curve" smooth="yes"/>
      <point x="85" y="426"/>
      <point x="203" y="556"/>
    </contour>
    <contour>
      <point x="-454" y="-398" type="line" smooth="yes"/>
      <point x="-650" y="-394"/>
      <point x="-738" y="-301"/>
      <point x="-738" y="-215" type="curve" smooth="yes"/>
      <point x="-738" y="-142"/>
      <point x="-673" y="-76"/>
      <point x="-556" y="-76" type="curve" smooth="yes"/>
      <point x="-422" y="-76"/>
      <point x="-271" y="-150"/>
      <point x="-126" y="-223" type="curve" smooth="yes"/>
      <point x="-103" y="-235"/>
      <point x="-82" y="-246"/>
      <point x="-59" y="-257" type="curve"/>
      <point x="-155" y="-345"/>
      <point x="-278" y="-398"/>
      <point x="-441" y="-398" type="curve" smooth="yes"/>
    </contour>
    <contour>
      <point x="407" y="558" type="curve" smooth="yes"/>
      <point x="419" y="558"/>
      <point x="390" y="491"/>
      <point x="348" y="405" type="curve" smooth="yes"/>
      <point x="327" y="360"/>
      <point x="291" y="299"/>
      <point x="250" y="238" type="curve"/>
      <point x="301" y="356" type="line" smooth="yes"/>
      <point x="370" y="514"/>
      <point x="399" y="558"/>
    </contour>
    <contour>
      <point x="237" y="10" type="line"/>
      <point x="321" y="78"/>
      <point x="399" y="166"/>
      <point x="454" y="282" type="curve"/>
      <point x="446" y="284" type="line"/>
      <point x="391" y="169"/>
      <point x="312" y="82"/>
      <point x="227" y="13" type="curve"/>
    </contour>
    <contour>
      <point x="410" y="742" type="line"/>
      <point x="404" y="713"/>
      <point x="374" y="689"/>
      <point x="348" y="689" type="curve" smooth="yes"/>
      <point x="328" y="689"/>
      <point x="315" y="701"/>
      <point x="315" y="718" type="curve" smooth="yes"/>
      <point x="315" y="726"/>
      <point x="316" y="732"/>
      <point x="321" y="742" type="curve"/>
      <point x="300" y="742" type="line"/>
      <point x="295" y="734"/>
      <point x="294" y="727"/>
      <point x="294" y="719" type="curve" smooth="yes"/>
      <point x="294" y="697"/>
      <point x="316" y="681"/>
      <point x="348" y="681" type="curve" smooth="yes"/>
      <point x="386" y="681"/>
      <point x="425" y="707"/>
      <point x="431" y="742" type="curve"/>
    </contour>
  </outline>
</glyph>
<glyph name="gcommaaccent" format="2">
  <advance width="446"/>
  <unicode hex="0123"/>
  <outline>
    <contour>
      <point x="275" y="556" type="curve" smooth="yes"/>
      <point x="319" y="556"/>
      <point x="332" y="528"/>
      <point x="326" y="495" type="curve"/>
      <point x="330" y="495" type="line"/>
      <point x="338" y="533"/>
      <point x="326" y="565"/>
      <point x="275" y="565" type="curve" smooth="yes"/>
      <point x="190" y="565"/>
      <point x="63" y="441"/>
      <point x="-1" y="281" type="curve" smooth="yes"/>
      <point x="-26" y="222"/>
      <point x="-44" y="158"/>
      <point x="-44" y="97" type="curve" smooth="yes"/>
      <point x="-44" y="38"/>
      <point x="-19" y="3"/>
      <point x="19" y="3" type="curve" smooth="yes"/>
      <point x="65" y="3"/>
      <point x="136" y="71"/>
      <point x="201" y="155" type="curve"/>
      <point x="200" y="152"/>
      <point x="199" y="147"/>
      <point x="199" y="148" type="curve" smooth="yes"/>
      <point x="199" y="149" type="line"/>
      <point x="129" y="2"/>
      <point x="54" y="-144"/>
      <point x="-45" y="-243" type="curve"/>
      <point x="-52" y="-249" type="line"/>
      <point x="-68" y="-240"/>
      <point x="-94" y="-228"/>
      <point x="-110" y="-219" type="curve" smooth="yes"/>
      <point x="-258" y="-143"/>
      <point x="-415" y="-64"/>
      <point x="-569" y="-64" type="curve" smooth="yes"/>
      <point x="-690" y="-64"/>
      <point x="-758" y="-134"/>
      <point x="-758" y="-210" type="curve" smooth="yes"/>
      <point x="-758" y="-301"/>
      <point x="-657" y="-401"/>
      <point x="-454" y="-407" type="curve" smooth="yes"/>
      <point x="-435" y="-407" type="line" smooth="yes"/>
      <point x="-273" y="-407"/>
      <point x="-143" y="-346"/>
      <point x="-46" y="-264" type="curve"/>
      <point x="77" y="-324"/>
      <point x="206" y="-377"/>
      <point x="328" y="-377" type="curve" smooth="yes"/>
      <point x="546" y="-377"/>
      <point x="636" y="-253"/>
      <point x="636" y="-160" type="curve" smooth="yes"/>
      <point x="636" y="-117"/>
      <point x="608" y="-61"/>
      <point x="548" y="-61" type="curve" smooth="yes"/>
      <point x="545" y="-61"/>
      <point x="543" y="-62"/>
      <point x="542" y="-62" type="curve"/>
      <point x="542" y="-66" type="line"/>
      <point x="546" y="-68" type="line"/>
      <point x="602" y="-68"/>
      <point x="624" y="-116"/>
      <point x="624" y="-155" type="curve" smooth="yes"/>
      <point x="624" y="-244"/>
      <point x="529" y="-366"/>
      <point x="314" y="-366" type="curve" smooth="yes"/>
      <point x="198" y="-366"/>
      <point x="81" y="-316"/>
      <point x="-38" y="-256" type="curve"/>
      <point x="82" y="-144"/>
      <point x="150" y="-11"/>
      <point x="220" y="168" type="curve"/>
      <point x="222" y="174"/>
      <point x="228" y="186"/>
      <point x="231" y="193" type="curve"/>
      <point x="282" y="264"/>
      <point x="330" y="345"/>
      <point x="356" y="400" type="curve" smooth="yes"/>
      <point x="400" y="493"/>
      <point x="430" y="567"/>
      <point x="407" y="567" type="curve" smooth="yes"/>
      <point x="391" y="567"/>
      <point x="349" y="519"/>
      <point x="280" y="358" type="curve" smooth="yes"/>
      <point x="263" y="314"/>
      <point x="234" y="237"/>
      <point x="215" y="189" type="curve"/>
      <point x="147" y="97"/>
      <point x="66" y="12"/>
      <point x="19" y="12" type="curve" smooth="yes"/>
      <point x="-11" y="12"/>
      <point x="-26" y="38"/>
      <point x="-26" y="84" type="curve" smooth="yes"/>
      <point x="-26" y="96"/>
      <point x="-25" y="109"/>
      <point x="-23" y="123" type="curve" smooth="yes"/>
      <point x="-16" y="172"/>
      <point x="-5" y="221"/>
      <point x="18" y="274" type="curve" smooth="yes"/>
      <point x="85" y="426"/>
      <point x="203" y="556"/>
    </contour>
    <contour>
      <point x="-454" y="-398" type="line" smooth="yes"/>
      <point x="-650" y="-394"/>
      <point x="-738" y="-301"/>
      <point x="-738" y="-215" type="curve" smooth="yes"/>
      <point x="-738" y="-142"/>
      <point x="-673" y="-76"/>
      <point x="-556" y="-76" type="curve" smooth="yes"/>
      <point x="-422" y="-76"/>
      <point x="-271" y="-150"/>
      <point x="-126" y="-223" type="curve" smooth="yes"/>
      <point x="-103" y="-235"/>
      <point x="-82" y="-246"/>
      <point x="-59" y="-257" type="curve"/>
      <point x="-155" y="-345"/>
      <point x="-278" y="-398"/>
      <point x="-441" y="-398" type="curve" smooth="yes"/>
    </contour>
    <contour>
      <point x="407" y="558" type="curve" smooth="yes"/>
      <point x="419" y="558"/>
      <point x="390" y="491"/>
      <point x="348" y="405" type="curve" smooth="yes"/>
      <point x="327" y="360"/>
      <point x="291" y="299"/>
      <point x="250" y="238" type="curve"/>
      <point x="301" y="356" type="line" smooth="yes"/>
      <point x="370" y="514"/>
      <point x="399" y="558"/>
    </contour>
    <contour>
      <point x="237" y="10" type="line"/>
      <point x="321" y="78"/>
      <point x="399" y="166"/>
      <point x="454" y="282" type="curve"/>
      <point x="446" y="284" type="line"/>
      <point x="391" y="169"/>
      <point x="312" y="82"/>
      <point x="227" y="13" type="curve"/>
    </contour>
    <contour>
      <point x="344" y="680" type="curve" smooth="yes"/>
      <point x="360" y="680"/>
      <point x="375" y="694"/>
      <point x="375" y="709" type="curve" smooth="yes"/>
      <point x="375" y="718"/>
      <point x="370" y="727"/>
      <point x="358" y="727" type="curve" smooth="yes"/>
      <point x="351" y="727" type="line"/>
      <point x="350" y="729"/>
      <point x="352" y="735"/>
      <point x="353" y="737" type="curve"/>
      <point x="367" y="757"/>
      <point x="382" y="775"/>
      <point x="402" y="789" type="curve"/>
      <point x="400" y="798" type="line"/>
      <point x="369" y="777"/>
      <point x="326" y="734"/>
      <point x="326" y="703" type="curve" smooth="yes"/>
      <point x="326" y="689"/>
      <point x="335" y="680"/>
    </contour>
  </outline>
</glyph>
<glyph name="kcommaaccent" format="2">
  <advance width="476"/>
  <unicode hex="0137"/>
  <outline>
    <contour>
      <point x="31" y="-136" type="curve" smooth="yes"/>
      <point x="15" y="-136"/>
      <point x="0" y="-150"/>
      <point x="0" y="-165" type="curve" smooth="yes"/>
      <point x="0" y="-174"/>
      <point x="5" y="-183"/>
      <point x="17" y="-183" type="curve" smooth="yes"/>
      <point x="24" y="-183" type="line"/>
      <point x="25" y="-185"/>
      <point x="23" y="-191"/>
      <point x="22" y="-193" type="curve"/>
      <point x="8" y="-213"/>
      <point x="-7" y="-231"/>
      <point x="-27" y="-245" type="curve"/>
      <point x="-25" y="-254" type="line"/>
      <point x="6" y="-233"/>
      <point x="49" y="-190"/>
      <point x="49" y="-159" type="curve" smooth="yes"/>
      <point x="49" y="-145"/>
      <point x="40" y="-136"/>
    </contour>
    <contour>
      <point x="24" y="308" type="line" smooth="yes"/>
      <point x="33" y="332"/>
      <point x="46" y="360"/>
      <point x="56" y="384" type="curve" smooth="yes"/>
      <point x="126" y="551"/>
      <point x="215" y="719"/>
      <point x="331" y="830" type="curve"/>
      <point x="404" y="794" type="line" smooth="yes"/>
      <point x="552" y="722"/>
      <point x="702" y="650"/>
      <point x="857" y="650" type="curve" smooth="yes"/>
      <point x="978" y="650"/>
      <point x="1046" y="720"/>
      <point x="1046" y="796" type="curve" smooth="yes"/>
      <point x="1046" y="887"/>
      <point x="945" y="987"/>
      <point x="742" y="993" type="curve" smooth="yes"/>
      <point x="723" y="993" type="line" smooth="yes"/>
      <point x="558" y="993"/>
      <point x="429" y="938"/>
      <point x="330" y="850" type="curve" smooth="yes"/>
      <point x="323" y="844" type="line"/>
      <point x="213" y="893"/>
      <point x="77" y="944"/>
      <point x="-33" y="944" type="curve" smooth="yes"/>
      <point x="-251" y="944"/>
      <point x="-341" y="820"/>
      <point x="-341" y="727" type="curve" smooth="yes"/>
      <point x="-341" y="684"/>
      <point x="-313" y="628"/>
      <point x="-253" y="628" type="curve" smooth="yes"/>
      <point x="-250" y="628"/>
      <point x="-248" y="629"/>
      <point x="-247" y="629" type="curve"/>
      <point x="-247" y="633" type="line"/>
      <point x="-251" y="635" type="line"/>
      <point x="-307" y="635"/>
      <point x="-329" y="683"/>
      <point x="-329" y="722" type="curve" smooth="yes"/>
      <point x="-329" y="811"/>
      <point x="-234" y="933"/>
      <point x="-19" y="933" type="curve" smooth="yes"/>
      <point x="92" y="933"/>
      <point x="202" y="890"/>
      <point x="316" y="837" type="curve"/>
      <point x="202" y="728"/>
      <point x="129" y="588"/>
      <point x="57" y="420" type="curve" smooth="yes"/>
      <point x="11" y="313" type="line"/>
      <point x="8" y="304"/>
      <point x="2" y="292"/>
      <point x="-2" y="283" type="curve" smooth="yes"/>
      <point x="-14" y="254"/>
      <point x="-28" y="223"/>
      <point x="-41" y="193" type="curve" smooth="yes"/>
      <point x="-122" y="4" type="line"/>
      <point x="-96" y="4" type="line"/>
      <point x="-77" y="53"/>
      <point x="-56" y="108"/>
      <point x="-36" y="157" type="curve"/>
      <point x="32" y="302"/>
      <point x="216" y="588"/>
      <point x="312" y="588" type="curve" smooth="yes"/>
      <point x="335" y="588"/>
      <point x="365" y="576"/>
      <point x="365" y="514" type="curve" smooth="yes"/>
      <point x="365" y="439"/>
      <point x="302" y="336"/>
      <point x="221" y="336" type="curve" smooth="yes"/>
      <point x="208" y="336"/>
      <point x="188" y="341"/>
      <point x="175" y="365" type="curve"/>
      <point x="171" y="364" type="line"/>
      <point x="169" y="356" type="line"/>
      <point x="170" y="354"/>
      <point x="171" y="352"/>
      <point x="173" y="350" type="curve"/>
      <point x="168" y="341" type="line"/>
      <point x="166" y="338"/>
      <point x="163" y="331"/>
      <point x="162" y="328" type="curve"/>
      <point x="126" y="268"/>
      <point x="98" y="211"/>
      <point x="98" y="133" type="curve" smooth="yes"/>
      <point x="98" y="54"/>
      <point x="132" y="-2"/>
      <point x="187" y="-2" type="curve" smooth="yes"/>
      <point x="273" y="-2"/>
      <point x="370" y="146"/>
      <point x="432" y="282" type="curve"/>
      <point x="424" y="284" type="line"/>
      <point x="365" y="156"/>
      <point x="269" y="7"/>
      <point x="188" y="7" type="curve" smooth="yes"/>
      <point x="141" y="7"/>
      <point x="119" y="55"/>
      <point x="119" y="122" type="curve" smooth="yes"/>
      <point x="119" y="181"/>
      <point x="138" y="259"/>
      <point x="175" y="331" type="curve"/>
      <point x="177" y="334"/>
      <point x="183" y="338"/>
      <point x="189" y="335" type="curve" smooth="yes"/>
      <point x="202" y="328"/>
      <point x="220" y="325"/>
      <point x="231" y="325" type="curve" smooth="yes"/>
      <point x="329" y="325"/>
      <point x="386" y="437"/>
      <point x="386" y="503" type="curve" smooth="yes"/>
      <point x="386" y="567"/>
      <point x="349" y="598"/>
      <point x="315" y="598" type="curve" smooth="yes"/>
      <point x="231" y="598"/>
      <point x="89" y="408"/>
      <point x="5" y="258" type="curve"/>
    </contour>
    <contour>
      <point x="742" y="984" type="line" smooth="yes"/>
      <point x="938" y="980"/>
      <point x="1026" y="887"/>
      <point x="1026" y="801" type="curve" smooth="yes"/>
      <point x="1026" y="728"/>
      <point x="961" y="662"/>
      <point x="844" y="662" type="curve" smooth="yes"/>
      <point x="714" y="662"/>
      <point x="555" y="735"/>
      <point x="417" y="800" type="curve" smooth="yes"/>
      <point x="390" y="813"/>
      <point x="365" y="825"/>
      <point x="338" y="837" type="curve"/>
      <point x="437" y="927"/>
      <point x="563" y="984"/>
      <point x="729" y="984" type="curve" smooth="yes"/>
    </contour>
  </outline>
</glyph>
<glyph name="oe" format="2">
  <advance width="620"/>
  <unicode hex="0153"/>
  <outline>
    <contour>
      <point x="619" y="285" type="line"/>
      <point x="554" y="148"/>
      <point x="444" y="-4"/>
      <point x="331" y="-4" type="curve" smooth="yes"/>
      <point x="286" y="-4"/>
      <point x="256" y="37"/>
      <point x="256" y="111" type="curve" smooth="yes"/>
      <point x="256" y="128"/>
      <point x="258" y="147"/>
      <point x="261" y="167" type="curve" smooth="yes"/>
      <point x="272" y="228"/>
      <point x="294" y="286"/>
      <point x="323" y="341" type="curve"/>
      <point x="328" y="318"/>
      <point x="355" y="290"/>
      <point x="399" y="290" type="curve" smooth="yes"/>
      <point x="479" y="290"/>
      <point x="584" y="403"/>
      <point x="597" y="491" type="curve" smooth="yes"/>
      <point x="601" y="525"/>
      <point x="581" y="565"/>
      <point x="542" y="565" type="curve" smooth="yes"/>
      <point x="481" y="565"/>
      <point x="386" y="488"/>
      <point x="318" y="375" type="curve"/>
      <point x="323" y="399"/>
      <point x="322" y="410"/>
      <point x="324" y="435" type="curve" smooth="yes"/>
      <point x="328" y="511"/>
      <point x="303" y="565"/>
      <point x="254" y="565" type="curve" smooth="yes"/>
      <point x="174" y="565"/>
      <point x="64" y="441"/>
      <point x="-2" y="283" type="curve" smooth="yes"/>
      <point x="-25" y="225"/>
      <point x="-36" y="174"/>
      <point x="-39" y="116" type="curve" smooth="yes"/>
      <point x="-43" y="40"/>
      <point x="-17" y="-12"/>
      <point x="31" y="-14" type="curve" smooth="yes"/>
      <point x="95" y="-14"/>
      <point x="179" y="65"/>
      <point x="243" y="179" type="curve"/>
      <point x="243" y="175" type="line"/>
      <point x="240" y="156"/>
      <point x="238" y="134"/>
      <point x="238" y="117" type="curve" smooth="yes"/>
      <point x="238" y="35"/>
      <point x="274" y="-14"/>
      <point x="331" y="-14" type="curve" smooth="yes"/>
      <point x="447" y="-14"/>
      <point x="558" y="140"/>
      <point x="626" y="282" type="curve"/>
    </contour>
    <contour>
      <point x="256" y="556" type="curve" smooth="yes"/>
      <point x="295" y="556"/>
      <point x="310" y="509"/>
      <point x="306" y="444" type="curve" smooth="yes"/>
      <point x="303" y="389"/>
      <point x="291" y="335"/>
      <point x="267" y="277" type="curve" smooth="yes"/>
      <point x="206" y="122"/>
      <point x="100" y="-5"/>
      <point x="31" y="-5" type="curve"/>
      <point x="-7" y="-2"/>
      <point x="-25" y="42"/>
      <point x="-21" y="107" type="curve" smooth="yes"/>
      <point x="-18" y="162"/>
      <point x="-6" y="216"/>
      <point x="18" y="274" type="curve" smooth="yes"/>
      <point x="79" y="429"/>
      <point x="187" y="556"/>
    </contour>
    <contour>
      <point x="583" y="498" type="curve" smooth="yes"/>
      <point x="572" y="405"/>
      <point x="472" y="299"/>
      <point x="394" y="299" type="curve" smooth="yes"/>
      <point x="355" y="299"/>
      <point x="332" y="330"/>
      <point x="330" y="350" type="curve"/>
      <point x="390" y="463"/>
      <point x="484" y="556"/>
      <point x="541" y="556" type="curve" smooth="yes"/>
      <point x="573" y="556"/>
      <point x="586" y="529"/>
    </contour>
  </outline>
</glyph>
<glyph name="Racute" format="2">
  <advance width="822"/>
  <unicode hex="0154"/>
  <outline>
    <contour>
      <point x="544" y="365" type="line"/>
      <point x="596" y="338"/>
      <point x="606" y="221"/>
      <point x="612" y="99" type="curve" smooth="yes"/>
      <point x="618" y="-30"/>
      <point x="624" y="-169"/>
      <point x="686" y="-232" type="curve" smooth="yes"/>
      <point x="701" y="-247"/>
      <point x="727" y="-264"/>
      <point x="755" y="-264" type="curve" smooth="yes"/>
      <point x="774" y="-264"/>
      <point x="796" y="-257"/>
      <point x="819" y="-236" type="curve"/>
      <point x="817" y="-233" type="line"/>
      <point x="799" y="-247"/>
      <point x="777" y="-255"/>
      <point x="756" y="-255" type="curve" smooth="yes"/>
      <point x="733" y="-255"/>
      <point x="708" y="-243"/>
      <point x="691" y="-226" type="curve"/>
      <point x="644" y="-167"/>
      <point x="639" y="-56"/>
      <point x="636" y="57" type="curve" smooth="yes"/>
      <point x="636" y="67"/>
      <point x="635" y="78"/>
      <point x="635" y="88" type="curve" smooth="yes"/>
      <point x="631" y="201"/>
      <point x="629" y="312"/>
      <point x="567" y="361" type="curve"/>
      <point x="568" y="363"/>
      <point x="570" y="365"/>
      <point x="570" y="366" type="curve"/>
      <point x="729" y="380"/>
      <point x="859" y="529"/>
      <point x="859" y="684" type="curve" smooth="yes"/>
      <point x="859" y="772"/>
      <point x="818" y="853"/>
      <point x="745" y="911" type="curve"/>
      <point x="789" y="964"/>
      <point x="841" y="1018"/>
      <point x="912" y="1020" type="curve"/>
      <point x="912" y="1030" type="line"/>
      <point x="857" y="1030"/>
      <point x="799" y="985"/>
      <point x="739" y="916" type="curve"/>
      <point x="673" y="965"/>
      <point x="583" y="997"/>
      <point x="477" y="997" type="curve" smooth="yes"/>
      <point x="183" y="997"/>
      <point x="-50" y="759"/>
      <point x="-50" y="553" type="curve" smooth="yes"/>
      <point x="-50" y="447"/>
      <point x="12" y="320"/>
      <point x="152" y="316" type="curve" smooth="yes"/>
      <point x="290" y="316"/>
      <point x="423" y="433"/>
      <point x="443" y="573" type="curve" smooth="yes"/>
      <point x="455" y="686"/>
      <point x="380" y="748"/>
      <point x="295" y="748" type="curve" smooth="yes"/>
      <point x="206" y="748"/>
      <point x="99" y="669"/>
      <point x="99" y="581" type="curve" smooth="yes"/>
      <point x="99" y="559"/>
      <point x="106" y="535"/>
      <point x="129" y="530" type="curve"/>
      <point x="118" y="545"/>
      <point x="112" y="562"/>
      <point x="112" y="579" type="curve" smooth="yes"/>
      <point x="112" y="672"/>
      <point x="210" y="740"/>
      <point x="294" y="740" type="curve" smooth="yes"/>
      <point x="369" y="740"/>
      <point x="437" y="686"/>
      <point x="426" y="574" type="curve" smooth="yes"/>
      <point x="407" y="439"/>
      <point x="283" y="327"/>
      <point x="153" y="324" type="curve"/>
      <point x="24" y="334"/>
      <point x="-37" y="446"/>
      <point x="-37" y="541" type="curve" smooth="yes"/>
      <point x="-37" y="743"/>
      <point x="192" y="988"/>
      <point x="483" y="988" type="curve" smooth="yes"/>
      <point x="587" y="988"/>
      <point x="671" y="956"/>
      <point x="731" y="907" type="curve"/>
      <point x="609" y="762"/>
      <point x="467" y="497"/>
      <point x="375" y="323" type="curve" smooth="yes"/>
      <point x="307" y="195"/>
      <point x="157" y="-21"/>
      <point x="-13" y="-11" type="curve" smooth="yes"/>
      <point x="-55" y="-9"/>
      <point x="-117" y="24"/>
      <point x="-117" y="87" type="curve" smooth="yes"/>
      <point x="-117" y="100"/>
      <point x="-114" y="115"/>
      <point x="-107" y="132" type="curve"/>
      <point x="-111" y="134" type="line"/>
      <point x="-121" y="115"/>
      <point x="-124" y="96"/>
      <point x="-124" y="79" type="curve" smooth="yes"/>
      <point x="-124" y="13"/>
      <point x="-61" y="-19"/>
      <point x="-13" y="-21" type="curve" smooth="yes"/>
      <point x="190" y="-32"/>
      <point x="318" y="167"/>
      <point x="404" y="329" type="curve" smooth="yes"/>
      <point x="431" y="382" type="line" smooth="yes"/>
      <point x="518" y="551"/>
      <point x="630" y="771"/>
      <point x="736" y="901" type="curve"/>
      <point x="799" y="845"/>
      <point x="836" y="767"/>
      <point x="836" y="688" type="curve" smooth="yes"/>
      <point x="836" y="533"/>
      <point x="704" y="374"/>
      <point x="543" y="374" type="curve"/>
      <point x="542" y="367" type="line"/>
    </contour>
    <contour>
      <point x="811" y="1124" type="line"/>
      <point x="854" y="1144"/>
      <point x="902" y="1168"/>
      <point x="945" y="1189" type="curve"/>
      <point x="954" y="1194"/>
      <point x="962" y="1200"/>
      <point x="962" y="1209" type="curve" smooth="yes"/>
      <point x="962" y="1217"/>
      <point x="957" y="1222"/>
      <point x="948" y="1222" type="curve" smooth="yes"/>
      <point x="939" y="1222"/>
      <point x="931" y="1218"/>
      <point x="927" y="1215" type="curve" smooth="yes"/>
      <point x="808" y="1130" type="line"/>
    </contour>
  </outline>
</glyph>
<glyph name="rcommaaccent" format="2">
  <advance width="340"/>
  <unicode hex="0157"/>
  <outline>
    <contour>
      <point x="-115" y="-136" type="curve" smooth="yes"/>
      <point x="-131" y="-136"/>
      <point x="-146" y="-150"/>
      <point x="-146" y="-165" type="curve" smooth="yes"/>
      <point x="-146" y="-174"/>
      <point x="-141" y="-183"/>
      <point x="-129" y="-183" type="curve" smooth="yes"/>
      <point x="-122" y="-183" type="line"/>
      <point x="-121" y="-185"/>
      <point x="-123" y="-191"/>
      <point x="-124" y="-193" type="curve"/>
      <point x="-138" y="-213"/>
      <point x="-153" y="-231"/>
      <point x="-173" y="-245" type="curve"/>
      <point x="-171" y="-254" type="line"/>
      <point x="-140" y="-233"/>
      <point x="-97" y="-190"/>
      <point x="-97" y="-159" type="curve" smooth="yes"/>
      <point x="-97" y="-145"/>
      <point x="-106" y="-136"/>
    </contour>
    <contour>
      <point x="6" y="282" type="line"/>
      <point x="51" y="369" type="line" smooth="yes"/>
      <point x="104" y="472"/>
      <point x="157" y="573"/>
      <point x="183" y="645" type="curve"/>
      <point x="188" y="640"/>
      <point x="197" y="627"/>
      <point x="195" y="628" type="curve"/>
      <point x="222" y="592"/>
      <point x="253" y="548"/>
      <point x="250" y="496" type="curve" smooth="yes"/>
      <point x="248" y="444"/>
      <point x="216" y="396"/>
      <point x="184" y="346" type="curve" smooth="yes"/>
      <point x="159" y="307" type="line" smooth="yes"/>
      <point x="116" y="238"/>
      <point x="79" y="166"/>
      <point x="70" y="92" type="curve" smooth="yes"/>
      <point x="65" y="42"/>
      <point x="87" y="-2"/>
      <point x="118" y="-2" type="curve" smooth="yes"/>
      <point x="188" y="-2"/>
      <point x="284" y="146"/>
      <point x="346" y="282" type="curve"/>
      <point x="338" y="284" type="line"/>
      <point x="279" y="156"/>
      <point x="185" y="7"/>
      <point x="119" y="7" type="curve" smooth="yes"/>
      <point x="94" y="7"/>
      <point x="76" y="40"/>
      <point x="82" y="86" type="curve" smooth="yes"/>
      <point x="90" y="157"/>
      <point x="128" y="216"/>
      <point x="170" y="281" type="curve" smooth="yes"/>
      <point x="181" y="298" type="line" smooth="yes"/>
      <point x="219" y="357"/>
      <point x="258" y="437"/>
      <point x="261" y="496" type="curve" smooth="yes"/>
      <point x="263" y="556"/>
      <point x="233" y="592"/>
      <point x="204" y="629" type="curve"/>
      <point x="197" y="636"/>
      <point x="192" y="645"/>
      <point x="186" y="653" type="curve"/>
      <point x="198" y="686"/>
      <point x="208" y="729"/>
      <point x="210" y="754" type="curve" smooth="yes"/>
      <point x="213" y="807"/>
      <point x="195" y="833"/>
      <point x="178" y="833" type="curve" smooth="yes"/>
      <point x="162" y="833"/>
      <point x="140" y="818"/>
      <point x="138" y="768" type="curve" smooth="yes"/>
      <point x="135" y="721"/>
      <point x="153" y="686"/>
      <point x="176" y="653" type="curve"/>
      <point x="150" y="585"/>
      <point x="102" y="488"/>
      <point x="53" y="391" type="curve" smooth="yes"/>
      <point x="-2" y="284" type="line"/>
    </contour>
    <contour>
      <point x="150" y="757" type="curve" smooth="yes"/>
      <point x="153" y="802"/>
      <point x="169" y="823"/>
      <point x="181" y="823" type="curve" smooth="yes"/>
      <point x="194" y="823"/>
      <point x="205" y="803"/>
      <point x="202" y="754" type="curve" smooth="yes"/>
      <point x="200" y="728"/>
      <point x="193" y="699"/>
      <point x="179" y="662" type="curve"/>
      <point x="162" y="688"/>
      <point x="148" y="719"/>
    </contour>
  </outline>
</glyph>
<glyph name="tcaron" format="2">
  <advance width="399"/>
  <unicode hex="0165"/>
  <outline>
    <contour>
      <point x="5" y="619" type="line"/>
      <point x="151" y="619" type="line"/>
      <point x="-58" y="162" type="line" smooth="yes"/>
      <point x="-74" y="127"/>
      <point x="-81" y="95"/>
      <point x="-81" y="68" type="curve" smooth="yes"/>
      <point x="-81" y="26"/>
      <point x="-63" y="-2"/>
      <point x="-36" y="-2" type="curve" smooth="yes"/>
      <point x="34" y="-2"/>
      <point x="130" y="146"/>
      <point x="192" y="282" type="curve"/>
      <point x="184" y="284" type="line"/>
      <point x="125" y="156"/>
      <point x="30" y="6"/>
      <point x="-35" y="6" type="curve" smooth="yes"/>
      <point x="-56" y="6"/>
      <point x="-68" y="27"/>
      <point x="-68" y="60" type="curve" smooth="yes"/>
      <point x="-68" y="84"/>
      <point x="-61" y="117"/>
      <point x="-45" y="151" type="curve" smooth="yes"/>
      <point x="175" y="619" type="line"/>
      <point x="337" y="619" type="line"/>
      <point x="337" y="627" type="line"/>
      <point x="178" y="627" type="line"/>
      <point x="258" y="796" type="line"/>
      <point x="232" y="796" type="line"/>
      <point x="154" y="627" type="line"/>
      <point x="5" y="627" type="line"/>
    </contour>
    <contour>
      <point x="432" y="776" type="curve" smooth="yes"/>
      <point x="416" y="776"/>
      <point x="401" y="762"/>
      <point x="401" y="747" type="curve" smooth="yes"/>
      <point x="401" y="738"/>
      <point x="406" y="729"/>
      <point x="418" y="729" type="curve" smooth="yes"/>
      <point x="425" y="729" type="line"/>
      <point x="426" y="727"/>
      <point x="424" y="721"/>
      <point x="423" y="719" type="curve"/>
      <point x="409" y="699"/>
      <point x="394" y="681"/>
      <point x="374" y="667" type="curve"/>
      <point x="376" y="658" type="line"/>
      <point x="407" y="679"/>
      <point x="450" y="722"/>
      <point x="450" y="753" type="curve" smooth="yes"/>
      <point x="450" y="767"/>
      <point x="441" y="776"/>
    </contour>
  </outline>
</glyph>
<glyph name="Zdotaccent" format="2">
  <advance width="511"/>
  <unicode hex="017B"/>
  <outline>
    <contour>
      <point x="841" y="924" type="curve" smooth="yes"/>
      <point x="810" y="903"/>
      <point x="777" y="877"/>
      <point x="744" y="848" type="curve"/>
      <point x="693" y="853"/>
      <point x="637" y="866"/>
      <point x="585" y="879" type="curve" smooth="yes"/>
      <point x="522" y="894"/>
      <point x="461" y="908"/>
      <point x="413" y="908" type="curve" smooth="yes"/>
      <point x="199" y="908"/>
      <point x="11" y="726"/>
      <point x="11" y="533" type="curve" smooth="yes"/>
      <point x="11" y="417"/>
      <point x="75" y="302"/>
      <point x="219" y="298" type="curve" smooth="yes"/>
      <point x="234" y="298"/>
      <point x="247" y="299"/>
      <point x="262" y="301" type="curve"/>
      <point x="140" y="176"/>
      <point x="-29" y="60"/>
      <point x="-191" y="34" type="curve"/>
      <point x="-207" y="37"/>
      <point x="-227" y="39"/>
      <point x="-246" y="39" type="curve" smooth="yes"/>
      <point x="-262" y="39"/>
      <point x="-256" y="21"/>
      <point x="-245" y="21" type="curve" smooth="yes"/>
      <point x="-232" y="21"/>
      <point x="-213" y="21"/>
      <point x="-200" y="22" type="curve"/>
      <point x="-106" y="1"/>
      <point x="17" y="-76"/>
      <point x="101" y="-130" type="curve" smooth="yes"/>
      <point x="214" y="-201"/>
      <point x="363" y="-289"/>
      <point x="511" y="-289" type="curve" smooth="yes"/>
      <point x="699" y="-289"/>
      <point x="806" y="-166"/>
      <point x="781" y="-78" type="curve"/>
      <point x="772" y="-80" type="line"/>
      <point x="795" y="-164"/>
      <point x="667" y="-269"/>
      <point x="487" y="-269" type="curve" smooth="yes"/>
      <point x="343" y="-269"/>
      <point x="218" y="-193"/>
      <point x="105" y="-122" type="curve" smooth="yes"/>
      <point x="85" y="-109"/>
      <point x="65" y="-95"/>
      <point x="44" y="-80" type="curve" smooth="yes"/>
      <point x="-7" y="-44"/>
      <point x="-64" y="-6"/>
      <point x="-116" y="13" type="curve" smooth="yes"/>
      <point x="-128" y="18"/>
      <point x="-144" y="24"/>
      <point x="-160" y="28" type="curve"/>
      <point x="13" y="55"/>
      <point x="154" y="167"/>
      <point x="279" y="304" type="curve"/>
      <point x="419" y="339"/>
      <point x="565" y="473"/>
      <point x="565" y="622" type="curve" smooth="yes"/>
      <point x="565" y="628"/>
      <point x="564" y="636"/>
      <point x="563" y="642" type="curve"/>
      <point x="625" y="713"/>
      <point x="692" y="786"/>
      <point x="748" y="837" type="curve"/>
      <point x="747" y="836" type="line"/>
      <point x="759" y="835"/>
      <point x="771" y="835"/>
      <point x="783" y="835" type="curve" smooth="yes"/>
      <point x="828" y="835"/>
      <point x="974" y="880"/>
      <point x="974" y="938" type="curve" smooth="yes"/>
      <point x="974" y="954"/>
      <point x="961" y="963"/>
      <point x="943" y="963" type="curve" smooth="yes"/>
      <point x="925" y="963"/>
      <point x="891" y="958"/>
    </contour>
    <contour>
      <point x="415" y="766" type="curve" smooth="yes"/>
      <point x="309" y="766"/>
      <point x="186" y="672"/>
      <point x="186" y="581" type="curve" smooth="yes"/>
      <point x="186" y="561"/>
      <point x="194" y="546"/>
      <point x="204" y="527" type="curve"/>
      <point x="213" y="529" type="line"/>
      <point x="205" y="546"/>
      <point x="202" y="561"/>
      <point x="202" y="575" type="curve" smooth="yes"/>
      <point x="202" y="666"/>
      <point x="308" y="756"/>
      <point x="414" y="756" type="curve" smooth="yes"/>
      <point x="479" y="756"/>
      <point x="537" y="717"/>
      <point x="543" y="637" type="curve"/>
      <point x="487" y="572"/>
      <point x="434" y="507"/>
      <point x="389" y="451" type="curve" smooth="yes"/>
      <point x="327" y="375" type="line"/>
      <point x="315" y="360" type="line"/>
      <point x="271" y="312" type="line"/>
      <point x="257" y="309"/>
      <point x="245" y="307"/>
      <point x="231" y="307" type="curve" smooth="yes"/>
      <point x="83" y="307"/>
      <point x="27" y="412"/>
      <point x="27" y="519" type="curve" smooth="yes"/>
      <point x="27" y="679"/>
      <point x="193" y="895"/>
      <point x="422" y="895" type="curve" smooth="yes"/>
      <point x="466" y="895"/>
      <point x="528" y="880"/>
      <point x="586" y="867" type="curve" smooth="yes"/>
      <point x="632" y="856"/>
      <point x="687" y="842"/>
      <point x="733" y="837" type="curve"/>
      <point x="672" y="782"/>
      <point x="615" y="721"/>
      <point x="561" y="658" type="curve"/>
      <point x="546" y="730"/>
      <point x="485" y="766"/>
    </contour>
    <contour>
      <point x="351" y="386" type="line" smooth="yes"/>
      <point x="368" y="406"/>
      <point x="387" y="430"/>
      <point x="408" y="456" type="curve" smooth="yes"/>
      <point x="446" y="502"/>
      <point x="497" y="565"/>
      <point x="544" y="620" type="curve"/>
      <point x="542" y="474"/>
      <point x="419" y="353"/>
      <point x="292" y="317" type="curve"/>
    </contour>
    <contour>
      <point x="288" y="312" type="line"/>
      <point x="292" y="317" type="line"/>
      <point x="289" y="316"/>
      <point x="287" y="315"/>
      <point x="285" y="315" type="curve"/>
    </contour>
    <contour>
      <point x="847" y="917" type="curve" smooth="yes"/>
      <point x="887" y="946"/>
      <point x="914" y="949"/>
      <point x="929" y="949" type="curve" smooth="yes"/>
      <point x="941" y="949"/>
      <point x="946" y="943"/>
      <point x="946" y="934" type="curve" smooth="yes"/>
      <point x="946" y="895"/>
      <point x="857" y="845"/>
      <point x="797" y="845" type="curve" smooth="yes"/>
      <point x="784" y="845"/>
      <point x="770" y="844"/>
      <point x="757" y="846" type="curve"/>
      <point x="786" y="872"/>
      <point x="815" y="896"/>
    </contour>
    <contour>
      <point x="720" y="1168" type="curve" smooth="yes"/>
      <point x="717" y="1157"/>
      <point x="723" y="1147"/>
      <point x="735" y="1147" type="curve" smooth="yes"/>
      <point x="746" y="1147"/>
      <point x="757" y="1154"/>
      <point x="761" y="1166" type="curve" smooth="yes"/>
      <point x="765" y="1179"/>
      <point x="759" y="1188"/>
      <point x="747" y="1188" type="curve" smooth="yes"/>
      <point x="735" y="1188"/>
      <point x="723" y="1180"/>
    </contour>
  </outline>
</glyph>
<glyph name="Ohorn" format="2">
  <advance width="879"/>
  <unicode hex="01A0"/>
  <outline>
    <contour>
      <point x="597" y="592" type="line"/>
      <point x="610" y="571"/>
      <point x="614" y="550"/>
      <point x="614" y="529" type="curve" smooth="yes"/>
      <point x="614" y="417"/>
      <point x="508" y="308"/>
      <point x="393" y="308" type="curve" smooth="yes"/>
      <point x="309" y="308"/>
      <point x="239" y="364"/>
      <point x="239" y="487" type="curve" smooth="yes"/>
      <point x="239" y="699"/>
      <point x="435" y="875"/>
      <point x="647" y="875" type="curve" smooth="yes"/>
      <point x="808" y="875"/>
      <point x="875" y="752"/>
      <point x="875" y="615" type="curve" smooth="yes"/>
      <point x="875" y="326"/>
      <point x="594" y="-85"/>
      <point x="262" y="-85" type="curve" smooth="yes"/>
      <point x="79" y="-85"/>
      <point x="-9" y="59"/>
      <point x="-9" y="238" type="curve" smooth="yes"/>
      <point x="-9" y="575"/>
      <point x="331" y="940"/>
      <point x="630" y="940" type="curve"/>
      <point x="628" y="948" type="line"/>
      <point x="329" y="948"/>
      <point x="-26" y="605"/>
      <point x="-26" y="253" type="curve" smooth="yes"/>
      <point x="-26" y="66"/>
      <point x="69" y="-98"/>
      <point x="271" y="-98" type="curve" smooth="yes"/>
      <point x="605" y="-98"/>
      <point x="889" y="308"/>
      <point x="889" y="595" type="curve" smooth="yes"/>
      <point x="889" y="748"/>
      <point x="813" y="885"/>
      <point x="647" y="885" type="curve" smooth="yes"/>
      <point x="430" y="885"/>
      <point x="221" y="709"/>
      <point x="221" y="496" type="curve" smooth="yes"/>
      <point x="221" y="368"/>
      <point x="295" y="299"/>
      <point x="387" y="299" type="curve" smooth="yes"/>
      <point x="514" y="299"/>
      <point x="631" y="412"/>
      <point x="631" y="528" type="curve" smooth="yes"/>
      <point x="631" y="554"/>
      <point x="621" y="577"/>
      <point x="606" y="599" type="curve"/>
    </contour>
  </outline>
</glyph>
<glyph name="Scommaaccent" format="2">
  <advance width="909"/>
  <unicode hex="0218"/>
  <outline>
    <contour>
      <point x="241" y="-204" type="curve" smooth="yes"/>
      <point x="225" y="-204"/>
      <point x="210" y="-218"/>
      <point x="210" y="-233" type="curve" smooth="yes"/>
      <point x="210" y="-242"/>
      <point x="215" y="-251"/>
      <point x="227" y="-251" type="curve" smooth="yes"/>
      <point x="234" y="-251" type="line"/>
      <point x="235" y="-253"/>
      <point x="233" y="-259"/>
      <point x="232" y="-261" type="curve"/>
      <point x="218" y="-281"/>
      <point x="203" y="-299"/>
      <point x="183" y="-313" type="curve"/>
      <point x="185" y="-322" type="line"/>
      <point x="216" y="-301"/>
      <point x="259" y="-258"/>
      <point x="259" y="-227" type="curve" smooth="yes"/>
      <point x="259" y="-213"/>
      <point x="250" y="-204"/>
    </contour>
    <contour>
      <point x="469" y="842" type="line"/>
      <point x="421" y="830"/>
      <point x="395" y="760"/>
      <point x="395" y="717" type="curve" smooth="yes"/>
      <point x="395" y="584"/>
      <point x="509" y="502"/>
      <point x="653" y="498" type="curve" smooth="yes"/>
      <point x="710" y="497"/>
      <point x="762" y="508"/>
      <point x="810" y="529" type="curve"/>
      <point x="796" y="405"/>
      <point x="783" y="278"/>
      <point x="732" y="172" type="curve" smooth="yes"/>
      <point x="652" y="-1"/>
      <point x="490" y="-115"/>
      <point x="319" y="-115" type="curve" smooth="yes"/>
      <point x="130" y="-115"/>
      <point x="8" y="22"/>
      <point x="8" y="202" type="curve" smooth="yes"/>
      <point x="8" y="383"/>
      <point x="165" y="525"/>
      <point x="312" y="525" type="curve" smooth="yes"/>
      <point x="422" y="525"/>
      <point x="486" y="448"/>
      <point x="486" y="368" type="curve" smooth="yes"/>
      <point x="486" y="281"/>
      <point x="411" y="177"/>
      <point x="309" y="177" type="curve" smooth="yes"/>
      <point x="294" y="177"/>
      <point x="239" y="179"/>
      <point x="221" y="232" type="curve"/>
      <point x="211" y="227" type="line"/>
      <point x="234" y="175"/>
      <point x="281" y="166"/>
      <point x="313" y="166" type="curve" smooth="yes"/>
      <point x="429" y="166"/>
      <point x="501" y="279"/>
      <point x="501" y="369" type="curve" smooth="yes"/>
      <point x="501" y="460"/>
      <point x="425" y="535"/>
      <point x="311" y="535" type="curve" smooth="yes"/>
      <point x="152" y="535"/>
      <point x="-14" y="392"/>
      <point x="-14" y="197" type="curve" smooth="yes"/>
      <point x="-14" y="15"/>
      <point x="129" y="-124"/>
      <point x="324" y="-124" type="curve" smooth="yes"/>
      <point x="493" y="-124"/>
      <point x="669" y="-19"/>
      <point x="754" y="159" type="curve" smooth="yes"/>
      <point x="798" y="252"/>
      <point x="807" y="362"/>
      <point x="815" y="467" type="curve" smooth="yes"/>
      <point x="821" y="534" type="line"/>
      <point x="966" y="606"/>
      <point x="1065" y="765"/>
      <point x="1065" y="883" type="curve" smooth="yes"/>
      <point x="1065" y="922"/>
      <point x="1045" y="959"/>
      <point x="1012" y="959" type="curve" smooth="yes"/>
      <point x="973" y="959"/>
      <point x="932" y="927"/>
      <point x="896" y="870" type="curve" smooth="yes"/>
      <point x="841" y="783"/>
      <point x="825" y="665"/>
      <point x="811" y="544" type="curve"/>
      <point x="764" y="521"/>
      <point x="708" y="506"/>
      <point x="652" y="508" type="curve" smooth="yes"/>
      <point x="515" y="511"/>
      <point x="410" y="596"/>
      <point x="410" y="727" type="curve" smooth="yes"/>
      <point x="410" y="762"/>
      <point x="428" y="825"/>
      <point x="468" y="836" type="curve"/>
    </contour>
    <contour>
      <point x="913" y="861" type="curve" smooth="yes"/>
      <point x="949" y="918"/>
      <point x="984" y="951"/>
      <point x="1012" y="951" type="curve" smooth="yes"/>
      <point x="1038" y="951"/>
      <point x="1049" y="921"/>
      <point x="1049" y="893" type="curve" smooth="yes"/>
      <point x="1049" y="776"/>
      <point x="960" y="622"/>
      <point x="821" y="549" type="curve"/>
      <point x="831" y="655"/>
      <point x="850" y="761"/>
    </contour>
  </outline>
</glyph>
<glyph name="caron" format="2">
  <advance width="392"/>
  <unicode hex="02C7"/>
  <outline>
    <contour>
      <point x="417" y="817" type="line"/>
      <point x="417" y="817"/>
      <point x="289" y="726"/>
      <point x="264" y="708" type="curve"/>
      <point x="216" y="811" type="line"/>
      <point x="209" y="810" type="line"/>
      <point x="253" y="672" type="line"/>
      <point x="420" y="810" type="line"/>
    </contour>
  </outline>
</glyph>
<glyph name="ring" format="2">
  <advance width="414"/>
  <unicode hex="02DA"/>
  <outline>
    <contour>
      <point x="319" y="719" type="curve" smooth="yes"/>
      <point x="319" y="697"/>
      <point x="341" y="681"/>
      <point x="373" y="681" type="curve" smooth="yes"/>
      <point x="414" y="681"/>
      <point x="457" y="711"/>
      <point x="457" y="749" type="curve" smooth="yes"/>
      <point x="457" y="771"/>
      <point x="437" y="788"/>
      <point x="404" y="788" type="curve" smooth="yes"/>
      <point x="364" y="788"/>
      <point x="319" y="757"/>
    </contour>
    <contour>
      <point x="404" y="780" type="curve" smooth="yes"/>
      <point x="424" y="780"/>
      <point x="436" y="767"/>
      <point x="436" y="749" type="curve" smooth="yes"/>
      <point x="436" y="717"/>
      <point x="402" y="689"/>
      <point x="373" y="689" type="curve" smooth="yes"/>
      <point x="353" y="689"/>
      <point x="340" y="701"/>
      <point x="340" y="718" type="curve" smooth="yes"/>
      <point x="340" y="751"/>
      <point x="375" y="780"/>
    </contour>
  </outline>
</glyph>
<glyph name="ogonek" format="2">
  <advance width="318"/>
  <unicode hex="02DB"/>
  <outline>
    <contour>
      <point x="163" y="9" type="line"/>
      <point x="98" y="-19"/>
      <point x="73" y="-57"/>
      <point x="73" y="-90" type="curve" smooth="yes"/>
      <point x="73" y="-119"/>
      <point x="96" y="-144"/>
      <point x="130" y="-144" type="curve" smooth="yes"/>
      <point x="140" y="-144"/>
      <point x="150" y="-142"/>
      <point x="159" y="-139" type="curve"/>
      <point x="157" y="-130" type="line"/>
      <point x="146" y="-134"/>
      <point x="136" y="-136"/>
      <point x="130" y="-136" type="curve" smooth="yes"/>
      <point x="105" y="-136"/>
      <point x="91" y="-118"/>
      <point x="91" y="-96" type="curve" smooth="yes"/>
      <point x="91" y="-64"/>
      <point x="108" y="-25"/>
      <point x="166" y="0" type="curve"/>
    </contour>
  </outline>
</glyph>
<glyph name="dotbelowcomb" format="2">
  <advance width="187"/>
  <unicode hex="0323"/>
  <outline>
    <contour>
      <point x="195" y="735" type="line"/>
      <point x="193" y="725"/>
      <point x="198" y="715"/>
      <point x="210" y="715" type="curve" smooth="yes"/>
      <point x="221" y="715"/>
      <point x="233" y="722"/>
      <point x="236" y="734" type="curve"/>
      <point x="241" y="747"/>
      <point x="234" y="756"/>
      <point x="222" y="756" type="curve" smooth="yes"/>
      <point x="210" y="756"/>
      <point x="199" y="748"/>
      <point x="195" y="736" type="curve"/>
    </contour>
  </outline>
</glyph>
<glyph name="emdash" format="2">
  <advance width="573"/>
  <unicode hex="2014"/>
  <outline>
    <contour>
      <point x="79" y="314" type="line"/>
      <point x="469" y="314" type="line"/>
      <point x="469" y="323" type="line"/>
      <point x="79" y="323" type="line"/>
    </contour>
  </outline>
</glyph>
<glyph name="quotedblright" format="2">
  <advance width="278"/>
  <unicode hex="201D"/>
  <outline>
    <contour>
      <point x="211" y="776" type="curve" smooth="yes"/>
      <point x="195" y="776"/>
      <point x="180" y="762"/>
      <point x="180" y="747" type="curve" smooth="yes"/>
      <point x="180" y="738"/>
      <point x="185" y="729"/>
      <point x="197" y="729" type="curve" smooth="yes"/>
      <point x="204" y="729" type="line"/>
      <point x="205" y="727"/>
      <point x="203" y="721"/>
      <point x="202" y="719" type="curve"/>
      <point x="188" y="699"/>
      <point x="173" y="681"/>
      <point x="153" y="667" type="curve"/>
      <point x="155" y="658" type="line"/>
      <point x="186" y="679"/>
      <point x="229" y="722"/>
      <point x="229" y="753" type="curve" smooth="yes"/>
      <point x="229" y="767"/>
      <point x="220" y="776"/>
    </contour>
    <contour>
      <point x="275" y="776" type="curve" smooth="yes"/>
      <point x="259" y="776"/>
      <point x="244" y="762"/>
      <point x="244" y="747" type="curve" smooth="yes"/>
      <point x="244" y="738"/>
      <point x="249" y="729"/>
      <point x="261" y="729" type="curve" smooth="yes"/>
      <point x="268" y="729" type="line"/>
      <point x="269" y="727"/>
      <point x="267" y="721"/>
      <point x="266" y="719" type="curve"/>
      <point x="252" y="699"/>
      <point x="237" y="681"/>
      <point x="217" y="667" type="curve"/>
      <point x="219" y="658" type="line"/>
      <point x="250" y="679"/>
      <point x="293" y="722"/>
      <point x="293" y="753" type="curve" smooth="yes"/>
      <point x="293" y="767"/>
      <point x="284" y="776"/>
    </contour>
  </outline>
</glyph>
<glyph name="ellipsis" format="2">
  <advance width="445"/>
  <unicode hex="2026"/>
  <outline>
    <contour>
      <point x="8" y="15" type="line"/>
      <point x="6" y="5"/>
      <point x="11" y="-5"/>
      <point x="23" y="-5" type="curve" smooth="yes"/>
      <point x="34" y="-5"/>
      <point x="46" y="2"/>
      <point x="49" y="14" type="curve"/>
      <point x="54" y="27"/>
      <point x="47" y="36"/>
      <point x="35" y="36" type="curve" smooth="yes"/>
      <point x="23" y="36"/>
      <point x="12" y="28"/>
      <point x="8" y="16" type="curve"/>
    </contour>
    <contour>
      <point x="126" y="15" type="line"/>
      <point x="124" y="5"/>
      <point x="129" y="-5"/>
      <point x="141" y="-5" type="curve" smooth="yes"/>
      <point x="152" y="-5"/>
      <point x="164" y="2"/>
      <point x="167" y="14" type="curve"/>
      <point x="172" y="27"/>
      <point x="165" y="36"/>
      <point x="153" y="36" type="curve" smooth="yes"/>
      <point x="141" y="36"/>
      <point x="130" y="28"/>
      <point x="126" y="16" type="curve"/>
    </contour>
    <contour>
      <point x="244" y="15" type="line"/>
      <point x="242" y="5"/>
      <point x="247" y="-5"/>
      <point x="259" y="-5" type="curve" smooth="yes"/>
      <point x="270" y="-5"/>
      <point x="282" y="2"/>
      <point x="285" y="14" type="curve"/>
      <point x="290" y="27"/>
      <point x="283" y="36"/>
      <point x="271" y="36" type="curve" smooth="yes"/>
      <point x="259" y="36"/>
      <point x="248" y="28"/>
      <point x="244" y="16" type="curve"/>
    </contour>
  </outline>
</glyph>
<glyph name="Euro" format="2">
  <advance width="532"/>
  <unicode hex="20AC"/>
  <outline>
    <contour>
      <point x="30" y="415" type="line"/>
      <point x="122" y="415" type="line"/>
      <point x="112" y="399"/>
      <point x="94" y="366"/>
      <point x="86" y="349" type="curve"/>
      <point x="-3" y="349" type="line"/>
      <point x="-3" y="341" type="line"/>
      <point x="82" y="341" type="line"/>
      <point x="58" y="285"/>
      <point x="45" y="228"/>
      <point x="45" y="177" type="curve" smooth="yes"/>
      <point x="45" y="72"/>
      <point x="110" y="-41"/>
      <point x="246" y="-41" type="curve" smooth="yes"/>
      <point x="402" y="-41"/>
      <point x="517" y="100"/>
      <point x="517" y="213" type="curve" smooth="yes"/>
      <point x="515" y="277"/>
      <point x="470" y="349"/>
      <point x="375" y="349" type="curve" smooth="yes"/>
      <point x="275" y="349"/>
      <point x="183" y="274"/>
      <point x="183" y="174" type="curve" smooth="yes"/>
      <point x="183" y="108"/>
      <point x="231" y="72"/>
      <point x="281" y="72" type="curve" smooth="yes"/>
      <point x="339" y="72"/>
      <point x="395" y="120"/>
      <point x="395" y="170" type="curve" smooth="yes"/>
      <point x="395" y="184"/>
      <point x="388" y="195"/>
      <point x="379" y="204" type="curve"/>
      <point x="377" y="202" type="line"/>
      <point x="381" y="192"/>
      <point x="385" y="182"/>
      <point x="385" y="168" type="curve" smooth="yes"/>
      <point x="385" y="125"/>
      <point x="335" y="78"/>
      <point x="283" y="78" type="curve" smooth="yes"/>
      <point x="244" y="78"/>
      <point x="196" y="103"/>
      <point x="196" y="175" type="curve" smooth="yes"/>
      <point x="196" y="270"/>
      <point x="277" y="341"/>
      <point x="373" y="341" type="curve" smooth="yes"/>
      <point x="467" y="341"/>
      <point x="503" y="274"/>
      <point x="503" y="213" type="curve" smooth="yes"/>
      <point x="503" y="100"/>
      <point x="384" y="-33"/>
      <point x="245" y="-33" type="curve" smooth="yes"/>
      <point x="127" y="-33"/>
      <point x="62" y="60"/>
      <point x="62" y="171" type="curve" smooth="yes"/>
      <point x="62" y="222"/>
      <point x="77" y="282"/>
      <point x="103" y="341" type="curve"/>
      <point x="223" y="341" type="line"/>
      <point x="223" y="349" type="line"/>
      <point x="107" y="349" type="line"/>
      <point x="118" y="370"/>
      <point x="130" y="394"/>
      <point x="143" y="415" type="curve"/>
      <point x="256" y="415" type="line"/>
      <point x="256" y="423" type="line"/>
      <point x="149" y="423" type="line"/>
      <point x="233" y="552"/>
      <point x="368" y="661"/>
      <point x="518" y="661" type="curve" smooth="yes"/>
      <point x="626" y="661"/>
      <point x="689" y="603"/>
      <point x="689" y="536" type="curve" smooth="yes"/>
      <point x="689" y="473"/>
      <point x="637" y="389"/>
      <point x="542" y="389" type="curve" smooth="yes"/>
      <point x="470" y="389"/>
      <point x="439" y="437"/>
      <point x="439" y="478" type="curve" smooth="yes"/>
      <point x="439" y="519"/>
      <point x="470" y="571"/>
      <point x="528" y="571" type="curve" smooth="yes"/>
      <point x="576" y="571"/>
      <point x="599" y="537"/>
      <point x="599" y="512" type="curve" smooth="yes"/>
      <point x="599" y="500"/>
      <point x="592" y="481"/>
      <point x="575" y="472" type="curve"/>
      <point x="577" y="468" type="line"/>
      <point x="600" y="474"/>
      <point x="607" y="500"/>
      <point x="607" y="515" type="curve" smooth="yes"/>
      <point x="607" y="543"/>
      <point x="577" y="579"/>
      <point x="528" y="579" type="curve" smooth="yes"/>
      <point x="463" y="579"/>
      <point x="427" y="523"/>
      <point x="427" y="478" type="curve" smooth="yes"/>
      <point x="427" y="439"/>
      <point x="461" y="382"/>
      <point x="542" y="382" type="curve" smooth="yes"/>
      <point x="641" y="382"/>
      <point x="702" y="465"/>
      <point x="702" y="529" type="curve" smooth="yes"/>
      <point x="702" y="586"/>
      <point x="655" y="668"/>
      <point x="518" y="668" type="curve" smooth="yes"/>
      <point x="357" y="668"/>
      <point x="213" y="553"/>
      <point x="128" y="423" type="curve"/>
      <point x="30" y="423" type="line"/>
    </contour>
  </outline>
</glyph>
<glyph name="fi" format="2">
  <advance width="402"/>
  <unicode hex="FB01"/>
  <outline>
    <contour>
      <point x="16" y="481" type="line"/>
      <point x="92" y="481" type="line"/>
      <point x="47" y="394"/>
      <point x="5" y="305"/>
      <point x="-37" y="214" type="curve" smooth="yes"/>
      <point x="-115" y="46"/>
      <point x="-197" y="-129"/>
      <point x="-311" y="-243" type="curve"/>
      <point x="-318" y="-249" type="line"/>
      <point x="-334" y="-240"/>
      <point x="-360" y="-228"/>
      <point x="-376" y="-219" type="curve" smooth="yes"/>
      <point x="-524" y="-143"/>
      <point x="-681" y="-64"/>
      <point x="-835" y="-64" type="curve" smooth="yes"/>
      <point x="-956" y="-64"/>
      <point x="-1024" y="-134"/>
      <point x="-1024" y="-210" type="curve" smooth="yes"/>
      <point x="-1024" y="-301"/>
      <point x="-923" y="-401"/>
      <point x="-720" y="-407" type="curve" smooth="yes"/>
      <point x="-701" y="-407" type="line" smooth="yes"/>
      <point x="-539" y="-407"/>
      <point x="-409" y="-346"/>
      <point x="-312" y="-264" type="curve"/>
      <point x="-189" y="-324"/>
      <point x="-60" y="-377"/>
      <point x="62" y="-377" type="curve" smooth="yes"/>
      <point x="280" y="-377"/>
      <point x="370" y="-253"/>
      <point x="370" y="-160" type="curve" smooth="yes"/>
      <point x="370" y="-117"/>
      <point x="342" y="-61"/>
      <point x="282" y="-61" type="curve" smooth="yes"/>
      <point x="279" y="-61"/>
      <point x="277" y="-62"/>
      <point x="276" y="-62" type="curve"/>
      <point x="276" y="-66" type="line"/>
      <point x="280" y="-68" type="line"/>
      <point x="336" y="-68"/>
      <point x="358" y="-116"/>
      <point x="358" y="-155" type="curve" smooth="yes"/>
      <point x="358" y="-244"/>
      <point x="263" y="-366"/>
      <point x="48" y="-366" type="curve" smooth="yes"/>
      <point x="-68" y="-366"/>
      <point x="-184" y="-316"/>
      <point x="-304" y="-256" type="curve"/>
      <point x="-183" y="-145"/>
      <point x="-119" y="-9"/>
      <point x="-39" y="166" type="curve" smooth="yes"/>
      <point x="9" y="275"/>
      <point x="59" y="384"/>
      <point x="107" y="481" type="curve"/>
      <point x="255" y="481" type="line"/>
      <point x="255" y="489" type="line"/>
      <point x="112" y="489" type="line"/>
      <point x="128" y="521" type="line" smooth="yes"/>
      <point x="134" y="533"/>
      <point x="142" y="550"/>
      <point x="149" y="562" type="curve"/>
      <point x="160" y="561"/>
      <point x="174" y="560"/>
      <point x="186" y="560" type="curve" smooth="yes"/>
      <point x="422" y="560"/>
      <point x="636" y="780"/>
      <point x="636" y="910" type="curve" smooth="yes"/>
      <point x="636" y="959"/>
      <point x="605" y="998"/>
      <point x="550" y="998" type="curve" smooth="yes"/>
      <point x="417" y="998"/>
      <point x="268" y="800"/>
      <point x="140" y="570" type="curve"/>
      <point x="12" y="588"/>
      <point x="-84" y="675"/>
      <point x="-69" y="804" type="curve" smooth="yes"/>
      <point x="-56" y="928"/>
      <point x="40" y="1017"/>
      <point x="144" y="1017" type="curve" smooth="yes"/>
      <point x="217" y="1017"/>
      <point x="274" y="962"/>
      <point x="266" y="898" type="curve" smooth="yes"/>
      <point x="259" y="839"/>
      <point x="219" y="779"/>
      <point x="142" y="779" type="curve" smooth="yes"/>
      <point x="128" y="779"/>
      <point x="91" y="779"/>
      <point x="77" y="804" type="curve"/>
      <point x="67" y="802" type="line"/>
      <point x="87" y="771"/>
      <point x="128" y="771"/>
      <point x="142" y="771" type="curve" smooth="yes"/>
      <point x="224" y="771"/>
      <point x="271" y="836"/>
      <point x="279" y="896" type="curve" smooth="yes"/>
      <point x="286" y="964"/>
      <point x="224" y="1025"/>
      <point x="145" y="1025" type="curve" smooth="yes"/>
      <point x="32" y="1025"/>
      <point x="-73" y="933"/>
      <point x="-87" y="806" type="curve" smooth="yes"/>
      <point x="-102" y="671"/>
      <point x="-4" y="580"/>
      <point x="135" y="563" type="curve"/>
      <point x="123" y="540"/>
      <point x="107" y="512"/>
      <point x="96" y="489" type="curve"/>
      <point x="16" y="489" type="line"/>
    </contour>
    <contour>
      <point x="-720" y="-398" type="line" smooth="yes"/>
      <point x="-916" y="-394"/>
      <point x="-1004" y="-301"/>
      <point x="-1004" y="-215" type="curve" smooth="yes"/>
      <point x="-1004" y="-142"/>
      <point x="-939" y="-76"/>
      <point x="-822" y="-76" type="curve" smooth="yes"/>
      <point x="-688" y="-76"/>
      <point x="-537" y="-150"/>
      <point x="-392" y="-223" type="curve" smooth="yes"/>
      <point x="-369" y="-235"/>
      <point x="-348" y="-246"/>
      <point x="-325" y="-257" type="curve"/>
      <point x="-421" y="-345"/>
      <point x="-544" y="-398"/>
      <point x="-707" y="-398" type="curve" smooth="yes"/>
    </contour>
    <contour>
      <point x="548" y="990" type="curve" smooth="yes"/>
      <point x="588" y="990"/>
      <point x="621" y="957"/>
      <point x="621" y="914" type="curve" smooth="yes"/>
      <point x="621" y="795"/>
      <point x="418" y="568"/>
      <point x="186" y="568" type="curve" smooth="yes"/>
      <point x="175" y="568"/>
      <point x="164" y="568"/>
      <point x="153" y="569" type="curve"/>
      <point x="284" y="817"/>
      <point x="418" y="990"/>
    </contour>
    <contour>
      <point x="336" y="552" type="line"/>
      <point x="213" y="283" type="line"/>
      <point x="158" y="162" type="line" smooth="yes"/>
      <point x="143" y="128"/>
      <point x="136" y="94"/>
      <point x="136" y="68" type="curve" smooth="yes"/>
      <point x="136" y="26"/>
      <point x="153" y="-2"/>
      <point x="180" y="-2" type="curve" smooth="yes"/>
      <point x="250" y="-2"/>
      <point x="346" y="146"/>
      <point x="408" y="282" type="curve"/>
      <point x="400" y="284" type="line"/>
      <point x="341" y="156"/>
      <point x="246" y="6"/>
      <point x="181" y="6" type="curve" smooth="yes"/>
      <point x="160" y="6"/>
      <point x="148" y="27"/>
      <point x="148" y="60" type="curve" smooth="yes"/>
      <point x="148" y="83"/>
      <point x="157" y="119"/>
      <point x="171" y="151" type="curve" smooth="yes"/>
      <point x="362" y="552" type="line"/>
    </contour>
    <contour>
      <point x="410" y="735" type="line"/>
      <point x="408" y="725"/>
      <point x="413" y="715"/>
      <point x="425" y="715" type="curve" smooth="yes"/>
      <point x="436" y="715"/>
      <point x="448" y="722"/>
      <point x="451" y="734" type="curve"/>
      <point x="456" y="747"/>
      <point x="449" y="756"/>
      <point x="437" y="756" type="curve" smooth="yes"/>
      <point x="425" y="756"/>
      <point x="414" y="748"/>
      <point x="410" y="736" type="curve"/>
    </contour>
  </outline>
</glyph>
<glyph name="init.init" format="2">
  <outline>
    <contour>
      <point x="-1" y="285" type="line"/>
      <point x="-49" y="181"/>
      <point x="-85" y="72"/>
      <point x="-85" y="-42" type="curve" smooth="yes"/>
      <point x="-85" y="-141"/>
      <point x="-53" y="-224"/>
      <point x="23" y="-254" type="curve" smooth="yes"/>
      <point x="39" y="-260"/>
      <point x="61" y="-263"/>
      <point x="82" y="-263" type="curve" smooth="yes"/>
      <point x="139" y="-263"/>
      <point x="202" y="-218"/>
      <point x="202" y="-158" type="curve" smooth="yes"/>
      <point x="202" y="-130"/>
      <point x="189" y="-105"/>
      <point x="163" y="-106" type="curve"/>
      <point x="163" y="-114" type="line"/>
      <point x="183" y="-113"/>
      <point x="194" y="-134"/>
      <point x="194" y="-158" type="curve" smooth="yes"/>
      <point x="194" y="-219"/>
      <point x="128" y="-255"/>
      <point x="82" y="-255" type="curve" smooth="yes"/>
      <point x="-36" y="-255"/>
      <point x="-75" y="-132"/>
      <point x="-75" y="-36" type="curve" smooth="yes"/>
      <point x="-75" y="79"/>
      <point x="-42" y="179"/>
      <point x="6" y="282" type="curve"/>
    </contour>
  </outline>
</glyph>
<glyph name="orn.2" format="2">
  <advance width="634"/>
  <outline>
    <contour>
      <point x="354" y="549" type="line"/>
      <point x="237" y="461"/>
      <point x="118" y="276"/>
      <point x="118" y="110" type="curve" smooth="yes"/>
      <point x="118" y="-67"/>
      <point x="249" y="-148"/>
      <point x="346" y="-148" type="curve" smooth="yes"/>
      <point x="442" y="-148"/>
      <point x="511" y="-91"/>
      <point x="511" y="-16" type="curve" smooth="yes"/>
      <point x="511" y="23"/>
      <point x="482" y="64"/>
      <point x="437" y="64" type="curve" smooth="yes"/>
      <point x="430" y="64"/>
      <point x="423" y="63"/>
      <point x="417" y="61" type="curve"/>
      <point x="419" y="51" type="line"/>
      <point x="427" y="54"/>
      <point x="433" y="55"/>
      <point x="438" y="55" type="curve" smooth="yes"/>
      <point x="474" y="55"/>
      <point x="502" y="22"/>
      <point x="502" y="-16" type="curve" smooth="yes"/>
      <point x="502" y="-81"/>
      <point x="441" y="-136"/>
      <point x="353" y="-136" type="curve" smooth="yes"/>
      <point x="258" y="-136"/>
      <point x="129" y="-49"/>
      <point x="129" y="120" type="curve" smooth="yes"/>
      <point x="129" y="260"/>
      <point x="218" y="410"/>
      <point x="316" y="503" type="curve"/>
      <point x="303" y="482"/>
      <point x="298" y="458"/>
      <point x="298" y="435" type="curve" smooth="yes"/>
      <point x="298" y="405"/>
      <point x="310" y="380"/>
      <point x="335" y="367" type="curve"/>
      <point x="340" y="369" type="line"/>
      <point x="341" y="373" type="line"/>
      <point x="317" y="386"/>
      <point x="310" y="409"/>
      <point x="310" y="435" type="curve" smooth="yes"/>
      <point x="310" y="471"/>
      <point x="326" y="514"/>
      <point x="357" y="538" type="curve"/>
    </contour>
  </outline>
</glyph>
